<?xml version="1.0" standalone="no"?><!DOCTYPE svg PUBLIC "-//W3C//DTD SVG 1.1//EN" "http://www.w3.org/Graphics/SVG/1.1/DTD/svg11.dtd"><svg t="1597206114521" class="icon" viewBox="0 0 1025 1024" version="1.1" xmlns="http://www.w3.org/2000/svg" p-id="2881" xmlns:xlink="http://www.w3.org/1999/xlink" width="200.1953125" height="200"><defs><style type="text/css"></style></defs><path d="M533.555956 43.437338c-11.891388-13.518523-31.383237-13.518523-43.270532 0l-355.982323 405.600728c-11.889342 13.515453-6.69479 24.620905 11.625316 24.620905l133.089402 0c18.323176 0 33.277467 14.595093 33.277467 32.490507l0 259.910752c0 17.89132 14.943034 32.490507 33.26621 32.490507l332.718387 0c18.31806 0 33.268257-14.599187 33.268257-32.490507L711.548141 506.149478c0-17.895414 14.949174-32.490507 33.270304-32.490507l133.083262 0c18.32727 0 23.524891-11.105452 11.63862-24.620905L533.555956 43.437338z" p-id="2882" fill="#E9574F"></path><path d="M445.377524 928.504578c0 35.91363-29.762242 64.974874-66.545724 64.974874-36.777342 0-66.537537-29.061243-66.537537-64.974874 0-35.9167 29.760195-64.981014 66.537537-64.981014C415.615282 863.523564 445.377524 892.587878 445.377524 928.504578z" p-id="2883" fill="#E9574F"></path><path d="M711.547117 928.504578c0 35.91363-29.759172 64.974874-66.547771 64.974874-36.776319 0-66.536514-29.061243-66.536514-64.974874 0-35.9167 29.760195-64.981014 66.536514-64.981014C681.787946 863.523564 711.547117 892.587878 711.547117 928.504578z" p-id="2884" fill="#E9574F"></path><path d="M378.8318 863.523564l266.167546 0 0 129.955888-266.167546 0 0-129.955888Z" p-id="2885" fill="#E9574F"></path></svg>