<?xml version="1.0" encoding="UTF-8"?>
<svg width="375px" height="218px" viewBox="0 0 375 218" version="1.1" xmlns="http://www.w3.org/2000/svg" xmlns:xlink="http://www.w3.org/1999/xlink">
    <title>矩形 2</title>
    <defs>
        <rect id="path-1" x="0" y="0" width="375" height="218"></rect>
        <linearGradient x1="20.3434444%" y1="100%" x2="63.0428612%" y2="31.1369147%" id="linearGradient-3">
            <stop stop-color="#06E3A3" offset="0%"></stop>
            <stop stop-color="#07D79B" offset="100%"></stop>
        </linearGradient>
        <linearGradient x1="19.8228377%" y1="100%" x2="63.2718224%" y2="31.1369147%" id="linearGradient-4">
            <stop stop-color="#06E3A3" offset="0%"></stop>
            <stop stop-color="#07D79B" offset="100%"></stop>
        </linearGradient>
        <linearGradient x1="20.0372065%" y1="100%" x2="63.1775437%" y2="31.1369147%" id="linearGradient-5">
            <stop stop-color="#06E3A3" offset="0%"></stop>
            <stop stop-color="#07D79B" offset="100%"></stop>
        </linearGradient>
        <linearGradient x1="21.8513177%" y1="100%" x2="62.3797032%" y2="31.1369147%" id="linearGradient-6">
            <stop stop-color="#06E3A3" offset="0%"></stop>
            <stop stop-color="#07D79B" offset="100%"></stop>
        </linearGradient>
    </defs>
    <g id="v2" stroke="none" stroke-width="1" fill="none" fill-rule="evenodd">
        <g id="矿池" transform="translate(0.000000, -104.000000)">
            <g id="矩形-2" transform="translate(0.000000, 104.000000)">
                <mask id="mask-2" fill="white">
                    <use xlink:href="#path-1"></use>
                </mask>
                <use id="矩形" fill="#07D79B" xlink:href="#path-1"></use>
                <path d="M439.133329,7.8265223 L438.320968,6.65322498 C435.220522,2.17577634 431.370988,-1.77061834 426.96015,-5.14281094 C426.958109,-5.14281094 426.958109,-5.14447048 426.956068,-5.14447048 C426.278419,-5.66224808 425.582401,-6.16508979 424.8823,-6.65465516 C424.79045,-6.71937736 424.700641,-6.78409956 424.60675,-6.84716221 C423.988294,-7.27366492 423.357591,-7.68523173 422.718724,-8.09016037 C422.528901,-8.21130705 422.341118,-8.33245374 422.153336,-8.45028133 C421.58999,-8.79878549 421.018479,-9.13567284 420.444927,-9.46592202 C420.165295,-9.62855729 419.885663,-9.79119256 419.601949,-9.9488492 C419.085548,-10.2359502 418.563024,-10.5147536 418.036418,-10.7885783 C417.683306,-10.9744471 417.328153,-11.1569969 416.970958,-11.3362277 C416.474969,-11.5834996 415.976938,-11.8224739 415.474825,-12.0581291 C415.084973,-12.2423385 414.691039,-12.4215692 414.293022,-12.5991403 C413.776621,-12.8298169 413.256138,-13.0555148 412.731573,-13.272915 C412.374379,-13.4239335 412.013102,-13.5699733 411.649785,-13.7126941 C411.05174,-13.9516684 410.449612,-14.1840045 409.843403,-14.4063833 C409.588264,-14.4993178 409.335166,-14.5889331 409.082069,-14.6785485 C408.357475,-14.9341182 407.628798,-15.1847093 406.893999,-15.4187049 C406.781738,-15.4535553 406.673559,-15.4867462 406.563339,-15.5199371 C400.156295,-17.5230062 393.353276,-18.6896653 386.440037,-18.9468946 C386.18898,-18.9568519 385.935883,-18.9568519 385.682785,-18.96349 C384.980643,-18.9834046 384.27646,-19 383.572278,-19 C382.868095,-19 382.163912,-18.9834046 381.459729,-18.96349 C381.208672,-18.9568519 380.955575,-18.9568519 380.702477,-18.9468946 C373.791279,-18.6896653 366.98826,-17.5246657 360.587339,-15.5215966 C360.473037,-15.4867462 360.358735,-15.4535553 360.248515,-15.4170454 C359.513716,-15.1847093 358.789122,-14.9357777 358.066569,-14.680208 C357.809389,-14.5889331 357.552209,-14.4993178 357.29707,-14.4047238 C356.690861,-14.1840045 356.092815,-13.9516684 355.496811,-13.7143536 C355.133494,-13.5699733 354.768135,-13.4239335 354.404818,-13.2712555 C353.880252,-13.0538553 353.363852,-12.8281573 352.847451,-12.5974808 C352.449434,-12.4215692 352.059582,-12.2423385 351.66973,-12.0597887 C351.165576,-11.8241335 350.667545,-11.5834996 350.173597,-11.3362277 C349.814361,-11.1569969 349.459208,-10.9744471 349.106096,-10.7885783 C348.57949,-10.5147536 348.056966,-10.2359502 347.540565,-9.9488492 C347.256851,-9.79119256 346.981301,-9.62855729 346.699628,-9.46758156 C346.124035,-9.13567284 345.552524,-8.79878549 344.991219,-8.45028133 C344.799355,-8.33245374 344.611572,-8.21130705 344.425831,-8.09181991 C343.786964,-7.68689128 343.156261,-7.27532446 342.537805,-6.84882176 C342.443914,-6.78409956 342.352064,-6.71771781 342.260214,-6.65299561 C341.556031,-6.16343025 340.864095,-5.66224808 340.186446,-5.14613002 C340.184405,-5.14447048 340.182364,-5.14115139 340.180323,-5.13949185 C335.769484,-1.7689588 331.921992,2.17743589 328.821546,6.65322498 L328.013267,7.82320322 L189.399455,208.100244 L186.654162,212.069872 C182.020843,218.764471 179.561305,225.935359 179.085727,233.076375 C179.083686,233.102928 179.079603,233.127821 179.077562,233.152714 C179.065316,233.346881 179.067357,233.539388 179.057151,233.733554 C179.026534,234.362521 179,234.991489 179,235.625434 C179,236.224529 179.020411,236.823625 179.046946,237.42272 C179.05511,237.595312 179.05511,237.771224 179.063274,237.943817 C180.038925,254.560827 191.646717,270.389554 211.484264,278.952798 C241.727388,292.006768 279.645086,283.227783 296.176035,259.343631 L346.638395,186.433243 L383.572278,133.067299 L438.345461,53.9253244 C448.632655,39.062452 448.206063,21.8529848 439.133329,7.8265223" id="Fill-117备份" fill="url(#linearGradient-3)" mask="url(#mask-2)"></path>
                <path d="M55.4024953,-19.9400541 L55.0951975,-20.3800406 C53.9223696,-22.0590839 52.4661792,-23.5389819 50.7976598,-24.8035541 C50.7968876,-24.8035541 50.7968876,-24.8041764 50.7961155,-24.8041764 C50.5397766,-24.998343 50.2764887,-25.1869087 50.0116566,-25.3704957 C49.9769119,-25.3947665 49.9429393,-25.4190373 49.9074224,-25.4426858 C49.6734745,-25.6026243 49.434894,-25.7569619 49.1932251,-25.9088101 C49.1214193,-25.9542401 49.0503856,-25.9996702 48.9793519,-26.0438555 C48.7662509,-26.1745446 48.5500614,-26.3008773 48.3330999,-26.4247208 C48.2273214,-26.485709 48.121543,-26.5466972 48.0142204,-26.6058185 C47.8188778,-26.7134813 47.6212188,-26.8180326 47.4220157,-26.9207168 C47.2884415,-26.9904177 47.1540952,-27.0588739 47.0189768,-27.1260854 C46.8313552,-27.2188124 46.6429615,-27.3084277 46.4530236,-27.3967984 C46.3055515,-27.4658769 46.1565352,-27.5330884 46.0059747,-27.5996776 C45.8106321,-27.6861813 45.6137452,-27.7708181 45.4153142,-27.8523431 C45.2801958,-27.9089751 45.1435331,-27.96374 45.0060984,-28.0172603 C44.7798716,-28.1068756 44.5521005,-28.1940017 44.3227853,-28.2773937 C44.2262721,-28.3122442 44.1305311,-28.3458499 44.03479,-28.3794557 C43.7606927,-28.4752943 43.4850511,-28.569266 43.2070932,-28.6570143 C43.1646274,-28.6700832 43.1237059,-28.6825298 43.0820122,-28.6949764 C40.6583739,-29.4461273 38.0849471,-29.8836245 35.4698267,-29.9800855 C35.3748578,-29.9838194 35.2791167,-29.9838194 35.1833757,-29.9863088 C34.9177715,-29.9937767 34.6513952,-30 34.3850189,-30 C34.1186426,-30 33.8522663,-29.9937767 33.5858899,-29.9863088 C33.490921,-29.9838194 33.39518,-29.9838194 33.2994389,-29.9800855 C30.6850906,-29.8836245 28.1116639,-29.4467497 25.6903419,-28.6955987 C25.647104,-28.6825298 25.6038661,-28.6700832 25.5621724,-28.656392 C25.2842145,-28.569266 25.0101171,-28.4759166 24.7367919,-28.380078 C24.6395066,-28.3458499 24.5422214,-28.3122442 24.4457082,-28.2767714 C24.216393,-28.1940017 23.9901661,-28.1068756 23.7647114,-28.0178826 C23.6272767,-27.96374 23.4890698,-27.9089751 23.3516351,-27.8517208 C23.1532041,-27.7701957 22.9578614,-27.685559 22.7625188,-27.5990553 C22.6119583,-27.5330884 22.4644862,-27.4658769 22.3170141,-27.3974207 C22.1263041,-27.3090501 21.9379104,-27.2188124 21.751061,-27.1260854 C21.6151704,-27.0588739 21.4808241,-26.9904177 21.3472499,-26.9207168 C21.1480468,-26.8180326 20.9503878,-26.7134813 20.7550452,-26.6058185 C20.6477226,-26.5466972 20.5434884,-26.485709 20.4369379,-26.4253431 C20.2192042,-26.3008773 20.0030147,-26.1745446 19.7906858,-26.0438555 C19.7181079,-25.9996702 19.6470742,-25.9542401 19.5768126,-25.9094325 C19.3351437,-25.7575842 19.0965632,-25.6032467 18.8626153,-25.4433082 C18.8270985,-25.4190373 18.7923537,-25.3941442 18.757609,-25.3698734 C18.4912327,-25.1862863 18.229489,-24.998343 17.9731501,-24.8047988 C17.972378,-24.8041764 17.9716059,-24.8029318 17.9708338,-24.8023094 C16.3023144,-23.5383595 14.846896,-22.0584615 13.6740682,-20.3800406 L13.3683145,-19.9412988 L-39.0661238,55.1625915 L-40.1046054,56.6512021 C-41.8572843,59.1616767 -42.7876711,61.8507597 -42.9675716,64.5286407 C-42.9683437,64.538598 -42.9698879,64.5479329 -42.97066,64.5572678 C-42.9752926,64.6300803 -42.9745205,64.7022704 -42.9783811,64.7750829 C-42.9899626,65.0109456 -43,65.2468082 -43,65.4845378 C-43,65.7091985 -42.9922789,65.9338592 -42.9822416,66.15852 C-42.9791532,66.2232422 -42.9791532,66.289209 -42.9760647,66.3539312 C-42.6069984,72.58531 -38.216036,78.5210826 -30.7119453,81.7322994 C-19.271662,86.6275382 -4.92826317,83.3354186 1.32501709,74.3788617 L20.4137747,47.037466 L34.3850189,27.0252372 L55.1044627,-2.65300334 C58.9958731,-8.22658052 58.8345031,-14.6801307 55.4024953,-19.9400541" id="Fill-117备份-4" fill="url(#linearGradient-4)" mask="url(#mask-2)"></path>
                <path d="M145.093881,32.2953778 L144.750072,31.8013579 C143.437899,29.9161164 141.808695,28.2544765 139.941936,26.8346059 C139.941072,26.8346059 139.941072,26.8339072 139.940208,26.8339072 C139.653413,26.6158955 139.358844,26.4041727 139.062547,26.1980399 C139.023674,26.1707885 138.985665,26.143537 138.945928,26.1169843 C138.684184,25.9374042 138.417258,25.764113 138.146876,25.5936167 C138.066538,25.5426076 137.987065,25.4915984 137.907592,25.4419868 C137.669172,25.2952482 137.427296,25.1534009 137.184557,25.0143486 C137.066211,24.9458706 136.947865,24.8773926 136.827791,24.8110109 C136.609239,24.6901262 136.388096,24.5727353 136.165225,24.4574407 C136.015781,24.3791801 135.865473,24.3023171 135.714301,24.2268515 C135.504387,24.122737 135.29361,24.0221162 135.081106,23.922893 C134.916112,23.8453312 134.749391,23.7698656 134.580942,23.6950988 C134.36239,23.5979718 134.142111,23.5029411 133.920104,23.4114042 C133.768932,23.3478175 133.616032,23.286327 133.462269,23.2262341 C133.209163,23.1256133 132.95433,23.0277876 132.69777,22.9341544 C132.58979,22.8950241 132.482673,22.8572913 132.375557,22.8195585 C132.068894,22.7119502 131.760503,22.6064382 131.44952,22.5079137 C131.402009,22.4932399 131.356225,22.4792648 131.309578,22.4652897 C128.597983,21.6218921 125.718802,21.1306672 122.792974,21.0223602 C122.686722,21.0181676 122.579606,21.0181676 122.47249,21.0153726 C122.175328,21.0069876 121.877304,21 121.579279,21 C121.281254,21 120.983229,21.0069876 120.685204,21.0153726 C120.578951,21.0181676 120.471835,21.0181676 120.364719,21.0223602 C117.439755,21.1306672 114.560574,21.6211934 111.851571,22.4645909 C111.803196,22.4792648 111.75482,22.4932399 111.708173,22.5086125 C111.39719,22.6064382 111.090527,22.7112515 110.784728,22.8188598 C110.675884,22.8572913 110.56704,22.8950241 110.45906,22.9348531 C110.202499,23.0277876 109.949394,23.1256133 109.697152,23.2255353 C109.543389,23.286327 109.388761,23.3478175 109.234998,23.412103 C109.012991,23.5036399 108.794439,23.5986706 108.575887,23.6957976 C108.407438,23.7698656 108.242445,23.8453312 108.077451,23.9221942 C107.864083,24.0214175 107.653306,24.122737 107.444256,24.2268515 C107.29222,24.3023171 107.141912,24.3791801 106.992468,24.4574407 C106.769597,24.5727353 106.548454,24.6901262 106.329902,24.8110109 C106.209828,24.8773926 106.09321,24.9458706 105.974,25.0136499 C105.730397,25.1534009 105.488521,25.2952482 105.250965,25.4419868 C105.169764,25.4915984 105.090291,25.5426076 105.011681,25.5929179 C104.741299,25.7634142 104.474373,25.9367055 104.212629,26.1162856 C104.172892,26.143537 104.13402,26.1714872 104.095147,26.1987387 C103.797122,26.4048715 103.50428,26.6158955 103.217485,26.8332084 C103.216621,26.8339072 103.215757,26.8353047 103.214893,26.8360034 C101.348134,28.2551752 99.7197945,29.9168151 98.4076208,31.8013579 L98.06554,32.2939803 L39.4012674,116.621155 L38.2394019,118.292578 C36.2784839,121.111356 35.2375561,124.130678 35.0362813,127.137421 C35.0354175,127.148601 35.0336898,127.159083 35.0328259,127.169564 C35.0276429,127.251318 35.0285067,127.332374 35.0241875,127.414128 C35.0112299,127.678956 35,127.943785 35,128.210709 C35,128.46296 35.0086384,128.71521 35.0198683,128.967461 C35.0233237,129.040132 35.0233237,129.1142 35.0267791,129.18687 C35.4396948,136.183506 40.3523558,142.848233 48.7480216,146.45381 C61.5475464,151.950218 77.5951115,148.253803 84.5913558,138.197318 L105.948085,107.498207 L121.579279,85.0283365 L144.760439,51.7053998 C149.114195,45.4473482 148.933652,38.2012568 145.093881,32.2953778" id="Fill-117备份-3" fill="url(#linearGradient-5)" mask="url(#mask-2)"></path>
                <path d="M272.865417,-3.4402215 L272.612885,-3.81459598 C271.649076,-5.24325557 270.452405,-6.50246704 269.081245,-7.5784627 C269.080611,-7.5784627 269.080611,-7.57899223 269.079976,-7.57899223 C268.869321,-7.74420416 268.652956,-7.90465036 268.435322,-8.06086036 C268.406769,-8.08151185 268.378851,-8.10216335 268.349664,-8.12228531 C268.15741,-8.25837335 267.961349,-8.38969565 267.762749,-8.51889985 C267.703741,-8.55755521 267.645366,-8.59621057 267.586992,-8.63380687 C267.41187,-8.74500721 267.234209,-8.85250087 267.055914,-8.95787643 C266.968987,-9.00976992 266.88206,-9.06166342 266.793864,-9.11196833 C266.633335,-9.20357623 266.470903,-9.2925365 266.307201,-9.3799082 C266.197432,-9.43921504 266.087029,-9.49746284 265.975991,-9.55465159 C265.821807,-9.63355087 265.666988,-9.70980254 265.510901,-9.78499515 C265.389711,-9.84377247 265.267252,-9.90096121 265.143524,-9.95762044 C264.982995,-10.0312245 264.821197,-10.1032399 264.658129,-10.1726078 C264.547092,-10.2207946 264.434785,-10.2673928 264.321843,-10.312932 C264.135934,-10.3891837 263.948756,-10.4633172 263.760309,-10.5342736 C263.680996,-10.563927 263.602318,-10.5925214 263.523639,-10.6211158 C263.298391,-10.7026627 263.071874,-10.782621 262.843453,-10.8572841 C262.808555,-10.8684042 262.774927,-10.8789947 262.740663,-10.8895852 C260.748961,-11.5287224 258.634164,-11.9009787 256.485105,-11.9830552 C256.407061,-11.9862323 256.328383,-11.9862323 256.249705,-11.9883504 C256.031436,-11.9947047 255.812533,-12 255.593629,-12 C255.374726,-12 255.155823,-11.9947047 254.936919,-11.9883504 C254.858876,-11.9862323 254.780197,-11.9862323 254.701519,-11.9830552 C252.553094,-11.9009787 250.438298,-11.5292519 248.448499,-10.8901147 C248.412967,-10.8789947 248.377434,-10.8684042 248.343171,-10.8567546 C248.114751,-10.782621 247.889502,-10.7031922 247.664888,-10.6216453 C247.584941,-10.5925214 247.504994,-10.563927 247.425681,-10.5337441 C247.237234,-10.4633172 247.051325,-10.3891837 246.86605,-10.3134615 C246.753109,-10.2673928 246.639533,-10.2207946 246.526591,-10.1720782 C246.363524,-10.1027104 246.202995,-10.0306949 246.042466,-9.95709091 C245.918738,-9.90096121 245.797548,-9.84377247 245.676358,-9.78552467 C245.519636,-9.71033206 245.364817,-9.63355087 245.211268,-9.55465159 C245.099596,-9.49746284 244.989192,-9.43921504 244.879423,-9.3799082 C244.715722,-9.2925365 244.553289,-9.20357623 244.39276,-9.11196833 C244.304564,-9.06166342 244.218906,-9.00976992 244.131345,-8.95840596 C243.952415,-8.85250087 243.774755,-8.74500721 243.600267,-8.63380687 C243.540623,-8.59621057 243.482249,-8.55755521 243.424509,-8.51942938 C243.22591,-8.39022518 243.029849,-8.25890287 242.837595,-8.12281484 C242.808408,-8.10216335 242.779855,-8.08098233 242.751302,-8.06033084 C242.532399,-7.90412084 242.317303,-7.74420416 242.106648,-7.57952175 C242.106014,-7.57899223 242.105379,-7.57793317 242.104745,-7.57740365 C240.733585,-6.50193751 239.537548,-5.24272605 238.573739,-3.81459598 L238.322476,-3.44128055 L195.232789,60.4629068 L194.379384,61.7295316 C192.939063,63.8656372 192.174488,66.1537166 192.026649,68.4322645 C192.026015,68.4407369 192.024746,68.4486797 192.024111,68.4566226 C192.020304,68.5185771 192.020939,68.580002 192.017766,68.6419565 C192.008249,68.8426467 192,69.0433368 192,69.2456155 C192,69.4367742 192.006345,69.6279329 192.014594,69.8190915 C192.017132,69.8741622 192.017132,69.9302919 192.01967,69.9853625 C192.322962,75.2875006 195.931376,80.3381141 202.098104,83.0704653 C211.499525,87.2357123 223.286675,84.4345228 228.425509,76.8135929 L244.11231,53.5494229 L255.593629,36.5214738 L272.620499,11.2689358 C275.818391,6.52650605 275.68578,1.03532739 272.865417,-3.4402215" id="Fill-117备份-2" fill="url(#linearGradient-6)" mask="url(#mask-2)"></path>
            </g>
        </g>
    </g>
</svg>