<?xml version="1.0" encoding="UTF-8"?>
<svg width="36px" height="36px" viewBox="0 0 36 36" version="1.1" xmlns="http://www.w3.org/2000/svg" xmlns:xlink="http://www.w3.org/1999/xlink">
    <!-- Generator: Sketch 60.1 (88133) - https://sketch.com -->
    <title>bihu_icon</title>
    <desc>Created with Sketch.</desc>
    <defs>
        <linearGradient x1="50%" y1="0%" x2="50%" y2="100%" id="linearGradient-1">
            <stop stop-color="#00B0F5" offset="0%"></stop>
            <stop stop-color="#006ABC" offset="100%"></stop>
        </linearGradient>
    </defs>
    <g id="v3" stroke="none" stroke-width="1" fill="none" fill-rule="evenodd">
        <g id="更多" transform="translate(-62.000000, -730.000000)">
            <g id="bihu_icon" transform="translate(62.000000, 730.000000)">
                <circle id="椭圆形" fill="url(#linearGradient-1)" cx="18" cy="18" r="18"></circle>
                <g transform="translate(9.000000, 8.000000)" fill="#FFFFFF" id="Fill-1">
                    <path d="M9.00281679,7.00011645 C7.32571974,7.01506643 5.9838808,8.37430301 6.00014633,10.0416979 C6.01587415,11.6665324 7.39064743,13.0127046 9.02123313,12.9999095 C10.6684876,12.9872492 12.0065627,11.6424239 12,10.0062758 C11.9935233,8.33564854 10.6473828,6.98557051 9.00281679,7.00011645"></path>
                    <path d="M17.9902274,11.8514156 C17.9934567,10.9967158 17.9909002,11.0082768 17.155446,10.999164 C16.8973688,10.9964437 16.8502745,11.0905641 16.8575405,11.3213766 C16.8724761,11.8005471 16.8560604,12.2806696 16.8648065,12.7603842 C16.8683049,12.9460407 16.8321095,13.0381208 16.6174937,13.0314562 C16.1217918,13.0162229 15.6252826,13.0279199 15.129177,13.0253357 C15.0392941,13.0247916 14.926133,13.062739 14.8926287,12.9226466 L14.8926287,12.9225106 L14.8926287,12.9225106 C14.8963963,12.4052567 14.8787695,11.8867787 14.911601,11.371429 C14.9327262,11.0387435 14.8155285,10.9495196 14.5197759,11.021606 C14.455593,11.0165735 14.3904682,11.0169815 14.3273617,11.0055565 C13.9846493,10.942991 13.8241247,11.0637697 13.733569,11.4303222 C13.5032102,12.363229 12.9789826,13.1310171 12.2673194,13.7632011 C11.1903384,14.719638 9.91717569,15.0833342 8.50394088,15.0066234 C8.50394088,15.0066234 8.50380633,15.0066234 8.50367177,15.0064874 C8.4189019,14.9446019 8.32256028,14.9531707 8.22648776,14.9605154 C7.99505256,14.911007 7.76348281,14.8614986 7.53191306,14.8118542 C6.70412857,14.4723681 5.91079024,14.0777971 5.30448385,13.3849516 C5.28308955,13.3487724 5.26613558,13.3087848 5.23989728,13.276686 C4.24660972,12.0657706 3.85357355,10.6845681 4.08568152,9.12559778 C4.29975908,8.19840354 4.7167461,7.37267429 5.3058294,6.63304068 C6.03363927,5.78214921 6.98238902,5.30488287 8.04537626,5.0864475 C8.88527073,4.91384819 9.73471864,5.0030721 10.5606194,5.25428639 C10.8114305,5.36976063 11.0674893,5.47503397 11.3119764,5.6027493 C12.2223779,6.07811146 12.8927326,6.80387184 13.4096943,7.68591008 C13.5453261,8.07381648 13.7388166,8.44091305 13.8171279,8.84949329 C13.8509012,9.02630897 13.9851875,9.01243574 14.1174554,9.01243574 C15.3127105,9.01175568 16.5078311,9.00794734 17.7030863,9.01896432 C17.9255063,9.0210045 18.0047594,8.95979907 17.9997808,8.72844255 C17.9864598,8.10836355 17.9837687,7.48760449 17.9961478,6.86738947 C18.0156583,5.88959874 17.7651163,5.02428998 17.0258692,4.348038 C17.0151048,4.26085427 16.9443287,4.22345095 16.8839133,4.18210328 C16.0032486,3.58011388 15.0746821,3.06122786 14.1331984,2.56464781 L14.1330638,2.5645118 C14.1331984,2.5645118 14.1331984,2.56464781 14.1331984,2.56464781 C14.1331984,2.56464781 14.1330638,2.56464781 14.1330638,2.56464781 C14.1331984,2.56519186 14.1331984,2.56573591 14.1333329,2.56641597 C13.9888205,2.41313037 13.7978864,2.33641956 13.6150257,2.24637958 C12.8107884,1.73742243 11.9835421,1.26872486 11.1526629,0.80641985 L11.1525283,0.80641985 L10.9476005,0.689041439 C10.7519571,0.541468349 10.5442036,0.416609273 10.3108846,0.339082396 C9.36159666,-0.14552859 8.41002125,-0.102004729 7.50298366,0.414025044 C5.48532624,1.56155883 3.47641491,2.72514205 1.48203556,3.91334344 C0.618324794,4.42801309 0.122488342,5.22449974 0.0230519409,6.25030273 L0.0229173855,6.25030273 C0.0153822861,6.30389149 0.00111941936,6.35748024 0.00111941936,6.41093298 C0,8.82609921 -0.00184079827,11.2412654 0.00394508164,13.6562957 C0.00461785837,13.9487216 0.071626421,14.235299 0.197301115,14.5035148 L0.197301115,14.5036508 C0.44178818,15.2250588 0.894836032,15.7693791 1.55483001,16.1378358 C1.76769657,16.3077148 2.01864229,16.4080918 2.25667069,16.5318627 C2.30820539,16.5664098 2.35960553,16.6009569 2.41100568,16.6356399 C3.31669772,17.1607825 4.2222552,17.6859251 5.12794724,18.2113397 C5.95236784,18.722337 6.78741833,19.2142927 7.64857254,19.6600042 C7.98845935,19.8852402 8.37140387,19.962223 8.76820758,19.9925537 C9.55629825,20.0529431 10.2243655,19.7376671 10.8863778,19.3496247 C12.7096028,18.2808419 14.5487053,17.2396695 16.3775815,16.1806796 C17.3318481,15.6280626 17.8906564,14.7994771 17.9658729,13.6815939 C18.0066431,13.073756 17.9879399,12.4615657 17.9902274,11.8514156"></path>
                </g>
            </g>
        </g>
    </g>
</svg>