<?xml version="1.0" encoding="UTF-8"?>
<svg width="36px" height="36px" viewBox="0 0 36 36" version="1.1" xmlns="http://www.w3.org/2000/svg" xmlns:xlink="http://www.w3.org/1999/xlink">
    <!-- Generator: Sketch 60.1 (88133) - https://sketch.com -->
    <title>GitHub_icon</title>
    <desc>Created with Sketch.</desc>
    <defs>
        <polygon id="path-1" points="0 0 36 0 36 36 0 36"></polygon>
    </defs>
    <g id="v3" stroke="none" stroke-width="1" fill="none" fill-rule="evenodd">
        <g id="更多" transform="translate(-16.000000, -730.000000)">
            <g id="GitHub_icon" transform="translate(16.000000, 730.000000)">
                <g id="编组">
                    <mask id="mask-2" fill="white">
                        <use xlink:href="#path-1"></use>
                    </mask>
                    <g id="Clip-2"></g>
                    <path d="M21.3056047,26.6095506 C21.9488914,26.4905835 22.552104,26.3987325 23.1459658,26.2652525 C24.587493,25.9411961 25.9240639,25.3872258 27.0293492,24.371709 C28.441107,23.0747195 29.0777147,21.3977228 29.3301823,19.5503912 C29.5047914,18.2742161 29.5696735,16.994222 29.2761775,15.7191927 C29.0252365,14.6292021 28.5468266,13.6545504 27.8394211,12.7948557 C27.6856124,12.6079074 27.6562246,12.4551406 27.7264499,12.2206437 C28.1653581,10.7573295 28.0186101,9.31444775 27.5447801,7.88455121 C27.4699749,7.6582655 27.3268526,7.61549081 27.1243824,7.61205356 C26.3425533,7.59830456 25.6244613,7.84655049 24.9225899,8.15074723 C24.1846516,8.47079351 23.4858334,8.86703221 22.828807,9.32972442 C22.6101162,9.4836369 22.4162333,9.5120897 22.1607124,9.44716384 C19.3847134,8.74119062 16.6060429,8.73527091 13.8313798,9.45594793 C13.5884536,9.5189642 13.4098371,9.48153635 13.2018328,9.34232768 C12.0978832,8.60255481 10.9490888,7.95157761 9.62663928,7.67946188 C8.62173034,7.47284489 8.54787927,7.51619244 8.28071776,8.51089478 C7.94027766,9.77847668 7.91165322,11.0481591 8.30418981,12.3096303 C8.36124787,12.4933323 8.32098281,12.6044701 8.20896581,12.7377591 C6.74606571,14.4808274 6.37700117,16.5223637 6.57756313,18.7223955 C6.69263341,19.9831029 6.93078881,21.2111564 7.48762973,22.3590074 C8.45933431,24.3613972 10.1199339,25.5014189 12.1994046,26.1130587 C12.9919202,26.3462189 13.8058086,26.4796988 14.68248,26.6084048 C14.0493073,27.2989104 13.7340567,28.0795484 13.6021934,28.9394341 C13.5758589,29.1120605 13.4325458,29.12791 13.3149948,29.1787049 C11.3200616,30.0418369 9.49344018,29.4546398 8.38090332,27.5912677 C7.80230783,26.6223448 7.03536346,25.900522 5.8900039,25.6679347 C5.63753628,25.6167578 5.38754943,25.6102652 5.13679927,25.6874124 C4.73605701,25.8107715 4.67594567,26.0036395 4.96276263,26.3187209 C5.08794688,26.455829 5.22896999,26.5879723 5.3860228,26.6849791 C6.35257497,27.2819151 6.98765605,28.1628062 7.35366732,29.1989465 C8.14427456,31.437361 10.1596265,32.3619816 12.4837408,32.1003685 C12.603391,32.0870015 12.7226595,32.0711519 12.8421189,32.0560662 C13.5281515,31.9703259 13.5268157,31.9703259 13.533113,32.6843194 C13.5396013,33.4208459 13.5539135,34.1569906 13.5565851,34.8935171 C13.56002,35.8112632 12.9917293,36.2180046 12.1276527,35.8845913 C5.84153317,33.4594195 1.90395417,28.9312228 0.469678522,22.3784852 C-0.768424248,16.7211514 0.451358875,11.4953837 4.0093777,6.90550746 C6.91189668,3.161386 10.7546333,0.897001227 15.4488519,0.192937586 C22.6244284,-0.883494947 29.761839,2.61429017 33.4229058,8.93539531 C37.8906096,16.6489692 36.4387776,26.3523296 29.9257616,32.263447 C28.1619232,33.8644423 26.1564944,35.0705356 23.9083303,35.8656864 C22.9789899,36.1941348 22.4461935,35.8194745 22.4505826,34.8291642 C22.45688,33.3162007 22.4729097,31.8032373 22.4830236,30.2902738 C22.4921835,28.9503187 22.2986822,27.6718522 21.3056047,26.6095506" id="Fill-1" fill="#231916" mask="url(#mask-2)"></path>
                </g>
            </g>
        </g>
    </g>
</svg>