<?xml version="1.0" encoding="UTF-8"?>
<svg width="36px" height="36px" viewBox="0 0 36 36" version="1.1" xmlns="http://www.w3.org/2000/svg" xmlns:xlink="http://www.w3.org/1999/xlink">
    <!-- Generator: Sketch 60.1 (88133) - https://sketch.com -->
    <title>medium_icon</title>
    <desc>Created with Sketch.</desc>
    <defs>
        <linearGradient x1="50%" y1="0%" x2="50%" y2="100%" id="linearGradient-1">
            <stop stop-color="#54ECDB" offset="0%"></stop>
            <stop stop-color="#09D0C0" offset="100%"></stop>
        </linearGradient>
        <polygon id="path-2" points="0 0 20 0 20 16 0 16"></polygon>
    </defs>
    <g id="v3" stroke="none" stroke-width="1" fill="none" fill-rule="evenodd">
        <g id="更多" transform="translate(-248.000000, -730.000000)">
            <g id="medium_icon" transform="translate(248.000000, 730.000000)">
                <circle id="椭圆形" fill="url(#linearGradient-1)" cx="18" cy="18" r="18"></circle>
                <g id="编组" transform="translate(8.000000, 10.000000)">
                    <mask id="mask-3" fill="white">
                        <use xlink:href="#path-2"></use>
                    </mask>
                    <g id="Clip-2"></g>
                    <path d="M10.0396763,9.24457511 C10.2595871,8.42310535 10.479096,7.60157721 10.6995236,6.78022424 C11.2905841,4.57770663 11.8833097,2.37565617 12.4698917,0.171912316 C12.5041128,0.0435649659 12.5539516,0.00198930016 12.6826252,0.00216447853 C15.0654707,0.00578483144 17.4482588,0.00578483144 19.8310469,0.00298197757 C19.9529452,0.0028067992 19.9997409,0.0353899754 19.9988222,0.165956251 C19.9940565,0.856918123 19.9949752,1.54787999 19.9988222,2.23884187 C19.9995112,2.35831351 19.9782666,2.41606398 19.840406,2.40444381 C19.6695302,2.39007919 19.4963576,2.40315917 19.3242185,2.40479417 C18.9181013,2.40870649 18.6147048,2.68817438 18.5816894,3.09990193 C18.5692871,3.25452604 18.578474,3.41101871 18.578474,3.56663549 C18.5783592,6.64195011 18.5783018,9.71726473 18.578474,12.7925794 C18.5785314,13.3997476 18.8540228,13.679449 19.4518587,13.6807921 C19.9970422,13.6819599 19.9970422,13.6819599 19.9970422,14.24837 C19.9970422,14.7641535 19.9924488,15.2800538 20,15.7957205 C20.0020376,15.9429287 19.9659217,15.9966501 19.8107209,15.9962997 C17.5714778,15.9911612 15.3321772,15.9912195 13.092934,15.9943144 C12.9611598,15.9945479 12.9055218,15.9642421 12.9066127,15.8183769 C12.9113784,15.166363 12.9096558,14.5142907 12.9029379,13.8623352 C12.9015025,13.7213167 12.9500781,13.6755367 13.0859864,13.6784564 C13.4112018,13.6855219 13.7375655,13.6649676 14.0616899,13.6855803 C14.2853903,13.6998281 14.3273628,13.6180782 14.326846,13.4066963 C14.3200707,10.3509433 14.3219081,7.29507346 14.3217358,4.23926203 C14.3217358,3.92417454 14.3217358,3.60908705 14.2567961,3.28465671 C14.1002747,3.8483807 13.9423179,4.41163754 13.7874043,4.97582867 C12.805959,8.55057681 11.8231931,12.1249746 10.8487529,15.7016497 C10.7873156,15.927221 10.6982604,16.0061681 10.4603778,15.9996281 C9.75275876,15.9800665 9.04410625,15.9834533 8.33620017,15.9971172 C8.12030863,16.0012631 8.02447804,15.9483008 7.96327049,15.7201602 C7.00398857,12.1499083 6.03345272,8.58275124 5.06532843,5.01489344 C4.90915157,4.43937412 4.75222827,3.86397157 4.5957069,3.28851064 C4.57130427,3.29002885 4.54695905,3.29160546 4.52255642,3.29312367 C4.52255642,3.46888596 4.522499,3.64464826 4.52255642,3.82041055 C4.52358994,7.01251075 4.52720727,10.2045526 4.52008744,13.396536 C4.51957068,13.6252605 4.57159136,13.6994778 4.80017227,13.6852299 C5.12429668,13.665026 5.45140682,13.6948647 5.77564606,13.6761206 C5.98814995,13.6637998 6.02914637,13.7469511 6.02558646,13.9419246 C6.01461963,14.5353705 6.01146164,15.1294004 6.02644773,15.7226711 C6.03201727,15.9411185 5.97379546,15.9986354 5.75698523,15.9974092 C4.06327012,15.9875992 2.36944018,15.9919203 0.67561024,15.9918619 C0.00468132941,15.9918619 0.00479616534,15.9919203 0.00462391145,15.323498 C0.00450907552,14.8466625 0.00979152822,14.3697102 0,13.8929915 C-0.00318493167,13.7261049 0.0502137749,13.6654348 0.213395629,13.6779308 C0.36566807,13.6896094 0.519490795,13.6828358 0.67250967,13.6800914 C1.092924,13.6725587 1.4202064,13.3534421 1.42072316,12.9258901 C1.42451275,9.6753971 1.42508692,6.42490412 1.42261795,3.17446952 C1.42227344,2.72151666 1.10435018,2.41004952 0.662863452,2.40362632 C0.00508325516,2.39416668 0.00508325516,2.39416668 0.00468132941,1.72171533 C0.00439423959,1.22537662 0.010078618,0.728921129 0.000317564142,0.232757602 C-0.00301267777,0.0635936925 0.0300026516,-0.000579982552 0.21730005,0 C2.58091054,0.00712786558 4.94463587,0.00642715212 7.30824636,0.000295909282 C7.46396388,0 7.51942963,0.0514479924 7.55778483,0.196846037 C8.11778224,2.31732177 8.68352144,4.4362209 9.24742326,6.55558718 C9.48593748,7.45191649 9.72359044,8.34847937 9.96164532,9.24492546 C9.98765565,9.24480868 10.013666,9.24469189 10.0396763,9.24457511" id="Fill-1" fill="#FEFEFE" mask="url(#mask-3)"></path>
                </g>
            </g>
        </g>
    </g>
</svg>