<?xml version="1.0" encoding="UTF-8"?>
<svg width="36px" height="36px" viewBox="0 0 36 36" version="1.1" xmlns="http://www.w3.org/2000/svg" xmlns:xlink="http://www.w3.org/1999/xlink">
    <!-- Generator: Sketch 60.1 (88133) - https://sketch.com -->
    <title>telegram_icon</title>
    <desc>Created with Sketch.</desc>
    <defs>
        <linearGradient x1="50%" y1="0%" x2="50%" y2="100%" id="linearGradient-1">
            <stop stop-color="#689EFF" offset="0%"></stop>
            <stop stop-color="#4481F5" offset="100%"></stop>
        </linearGradient>
        <polygon id="path-2" points="0 0 22 0 22 20 0 20"></polygon>
    </defs>
    <g id="v3" stroke="none" stroke-width="1" fill="none" fill-rule="evenodd">
        <g id="更多" transform="translate(-155.000000, -730.000000)">
            <g id="telegram_icon" transform="translate(155.000000, 730.000000)">
                <circle id="椭圆形" fill="url(#linearGradient-1)" cx="18" cy="18" r="18"></circle>
                <g transform="translate(5.000000, 9.000000)">
                    <mask id="mask-3" fill="white">
                        <use xlink:href="#path-2"></use>
                    </mask>
                    <g id="Clip-2"></g>
                    <path d="M16.1695617,5.07486977 C14.0599557,7.08120301 11.9701068,9.10822962 9.80717559,11.060058 C9.09936996,11.6987811 8.76292252,12.4003233 8.69693738,13.2866278 C8.66317755,13.7389258 8.65972484,14.2013857 8.36681991,14.7142857 C7.93887564,13.3466756 7.54143031,12.0583284 7.12959869,10.7742308 C7.02985372,10.4630912 7.09986702,10.2731556 7.39507375,10.0895019 C10.3916427,8.22525084 13.3788127,6.3471426 16.3717371,4.47753342 C16.4388731,4.43540763 16.541879,4.4463086 16.6521739,4.42857143 C16.6439258,4.77869589 16.3537063,4.89971516 16.1695617,5.07486977 M20.8471829,1.14785014 C20.5464921,0.875173461 20.2402534,1.03944998 19.9134879,1.16610308 C17.6721762,2.03535311 15.4212483,2.87908626 13.1769777,3.74014109 C11.4064894,4.41941147 9.64117905,5.11190592 7.87346463,5.79862648 C7.36621066,6.00667282 6.85544309,6.20652396 6.35225751,6.42406929 C4.59027581,7.18622294 2.70846161,7.65185934 1.02507377,8.60864901 C0.87879674,9.26910768 1.40269411,9.38384049 1.81471082,9.54532319 C3.10198565,10.0498868 4.39184945,10.550539 5.69761695,11.0029514 C6.16067344,11.1635028 6.38924285,11.4281705 6.52997208,11.8807691 C6.99783665,13.3851472 7.48012551,14.8858002 7.99329713,16.3750916 C8.276235,17.1968467 8.69749805,17.2933266 9.3576864,16.7191038 C9.91542536,16.2340969 10.4898077,15.7554227 10.9720966,15.1992666 C11.495809,14.5954293 11.836629,14.716681 12.3448076,15.237635 C13.4421626,16.3626126 14.6105296,17.4175584 15.7509726,18.4996974 C16.1470856,18.8757453 16.56502,19.179154 17.1432858,18.8766766 C17.4624693,18.4406547 17.5628845,17.9241708 17.6749501,17.4115982 C18.0570087,15.6634129 18.4405467,13.9154139 18.8235299,12.1674149 C19.2224168,10.2353963 19.6211188,8.30337779 20.0201907,6.37135925 C20.3073818,4.91894619 20.5929087,3.46597438 20.8830587,2.01412009 C20.9420503,1.71927912 21.1323399,1.40637146 20.8471829,1.14785014" id="Fill-1" fill="#FFFFFF" mask="url(#mask-3)"></path>
                </g>
            </g>
        </g>
    </g>
</svg>