<?xml version="1.0" encoding="UTF-8"?>
<svg width="36px" height="36px" viewBox="0 0 36 36" version="1.1" xmlns="http://www.w3.org/2000/svg" xmlns:xlink="http://www.w3.org/1999/xlink">
    <!-- Generator: Sketch 60.1 (88133) - https://sketch.com -->
    <title>twitter_icon</title>
    <desc>Created with Sketch.</desc>
    <defs>
        <linearGradient x1="50%" y1="0%" x2="50%" y2="100%" id="linearGradient-1">
            <stop stop-color="#3ADDFC" offset="0%"></stop>
            <stop stop-color="#22B5F5" offset="100%"></stop>
        </linearGradient>
        <polygon id="path-2" points="0 0 20 0 20 18 0 18"></polygon>
    </defs>
    <g id="v3" stroke="none" stroke-width="1" fill="none" fill-rule="evenodd">
        <g id="更多" transform="translate(-109.000000, -730.000000)">
            <g id="twitter_icon" transform="translate(109.000000, 730.000000)">
                <circle id="椭圆形" fill="url(#linearGradient-1)" cx="18" cy="18" r="18"></circle>
                <g transform="translate(9.000000, 10.000000)">
                    <mask id="mask-3" fill="white">
                        <use xlink:href="#path-2"></use>
                    </mask>
                    <g id="Clip-2"></g>
                    <path d="M18.3160876,2.30053435 C18.1263842,2.46841206 17.9364993,2.63628978 17.7168428,2.83065354 C18.5170461,2.74442453 19.2400973,2.48912295 20,2.16252811 C19.5430781,2.91270053 19.0496678,3.55653049 18.4333587,4.05936707 C18.0898958,4.33976069 17.9660894,4.62911576 17.9617326,5.10586457 C17.9386777,7.60491256 17.3131104,9.92015138 16.1055441,12.0464033 C15.0388483,13.9247219 13.6403079,15.4171011 11.8676252,16.4771403 C10.6016048,17.2342827 9.24663254,17.6901215 7.81632357,17.8866759 C6.86000073,18.0183095 5.90168101,18.0388213 4.94517663,17.9294916 C4.13389972,17.8370892 3.33587481,17.656068 2.55836329,17.3740813 C1.75017246,17.0811416 0.977199288,16.7051593 0.244889809,16.229207 C0.163743964,16.1766332 0.0853211342,16.1188817 0,16.024687 C2.1845841,16.1762349 4.16367135,15.5955334 5.9672149,14.0832399 C5.34872744,14.051377 4.82264096,13.9217348 4.32541844,13.6660349 C3.29176197,13.13492 2.5796028,12.2778077 2.16189231,11.1168029 C2.10579821,10.9610729 2.1480957,10.9331928 2.28261264,10.952908 C2.82031732,11.032167 3.35511745,11.0275867 3.9175108,10.8617004 C1.87633882,10.1832195 0.77805613,8.71394103 0.629016447,6.34114983 C1.22172603,6.66356266 1.79973133,6.86310415 2.49845696,6.90492422 C1.36295974,5.94246515 0.738118578,4.75596997 0.691282722,3.24148595 C0.665141778,2.39731794 0.8455869,1.60930831 1.23842719,0.859335023 C1.43811495,1.097112 1.62309843,1.32134724 1.81207566,1.5419979 C3.38561522,3.37750076 5.29299641,4.59127855 7.51497658,5.21280447 C8.17521693,5.39760936 8.84580474,5.5176927 9.52782921,5.56349564 C9.74149512,5.57783395 9.76654685,5.4812495 9.73949824,5.29166517 C9.39058926,2.84280127 10.8058309,0.56022194 13.0071161,0.0940277143 C14.3833279,-0.197318784 15.6193951,0.188819876 16.6537777,1.2464694 C16.8118941,1.40797453 16.9393312,1.42390599 17.1359329,1.37192961 C17.779109,1.20245875 18.3901536,0.942377737 18.9886723,0.640675792 C19.0687289,0.59945315 19.1571361,0.555044217 19.2270268,0.642268938 C19.2956468,0.728099656 19.238282,0.826874682 19.2114149,0.914099403 C19.0923284,1.30063635 18.8501616,1.59855457 18.6041826,1.89010021 C18.4961696,2.01834843 18.3914243,2.14619837 18.3160876,2.30053435" id="Fill-1" fill="#FFFFFF" mask="url(#mask-3)"></path>
                </g>
            </g>
        </g>
    </g>
</svg>