<?xml version="1.0" encoding="UTF-8"?>
<svg width="36px" height="36px" viewBox="0 0 36 36" version="1.1" xmlns="http://www.w3.org/2000/svg" xmlns:xlink="http://www.w3.org/1999/xlink">
    <!-- Generator: Sketch 60.1 (88133) - https://sketch.com -->
    <title>WeChat_icon</title>
    <desc>Created with Sketch.</desc>
    <defs>
        <linearGradient x1="50%" y1="0%" x2="50%" y2="100%" id="linearGradient-1">
            <stop stop-color="#06EDA3" offset="0%"></stop>
            <stop stop-color="#18DD9F" offset="100%"></stop>
        </linearGradient>
    </defs>
    <g id="v3" stroke="none" stroke-width="1" fill="none" fill-rule="evenodd">
        <g id="更多" transform="translate(-202.000000, -730.000000)">
            <g id="WeChat_icon" transform="translate(202.000000, 730.000000)">
                <circle id="椭圆形" fill="url(#linearGradient-1)" cx="18" cy="18" r="18"></circle>
                <g transform="translate(7.000000, 9.000000)" fill="#FFFFFF" id="编组">
                    <g>
                        <path d="M18.599475,10.591528 C18.1967395,10.591528 17.7915748,10.2133031 17.7915748,9.82817944 C17.7915748,9.44767328 18.1967395,9.06491333 18.599475,9.06491333 C19.2108803,9.06491333 19.6184448,9.44767328 19.6184448,9.82817944 C19.6184448,10.2131932 19.2108803,10.591528 18.599475,10.591528 M14.1186361,10.591528 C13.7133544,10.591528 13.3033901,10.2133031 13.3033901,9.82817944 C13.3033901,9.44767328 13.7133544,9.06491333 14.1186361,9.06491333 C14.734724,9.06491333 15.1374596,9.44767328 15.1374596,9.82817944 C15.1374596,10.2131932 14.734724,10.591528 14.1186361,10.591528 M16.3650698,6.00954014 C20.0260093,6.00954014 23.284301,8.49525351 23.284301,11.5462291 C23.284301,13.2664225 22.0662901,14.7907834 20.4311447,15.9390358 L20.4311447,15.9390358 L21.0425499,17.8461566 L18.8081155,16.7000206 C17.9954156,16.8914555 17.1753698,17.0828905 16.3650698,17.0828905 C12.4882903,17.0828905 9.43623924,14.6016022 9.43623924,11.5462291 C9.43623924,8.49525351 12.4882903,6.00954014 16.3650698,6.00954014 Z M8.10700567,0 C12.0914121,0 15.5842369,2.24729756 16.2857143,5.27247979 C16.0280264,5.24593978 15.7679503,5.22819233 15.505486,5.22819233 C11.6547872,5.22819233 8.61279978,7.89217614 8.61279978,11.1722615 C8.61279978,11.7173733 8.70587965,12.2427085 8.86332325,12.7457242 C8.61279978,12.7634987 8.36230544,12.7745908 8.10700567,12.7745908 C7.09541744,12.7745908 6.28187147,12.5839411 5.26789508,12.3978364 L5.26789508,12.3978364 L2.43356081,13.7142857 L3.24468949,11.4559231 C1.21443593,10.1438835 0,8.45067965 0,6.38729542 C0,2.81467479 3.6502684,0 8.10700567,0 Z M11.1465758,3.19364771 C10.5381783,3.19364771 9.92986821,3.56596535 9.92986821,4.13112415 C9.92986821,4.69409157 10.5381783,5.07084606 11.1465758,5.07084606 C11.7573906,5.07084606 12.1605813,4.69409157 12.1605813,4.13112415 C12.1605813,3.56596535 11.7573906,3.19364771 11.1465758,3.19364771 Z M5.47313094,3.19364771 C4.86470433,3.19364771 4.25150141,3.56596535 4.25150141,4.13112415 C4.25150141,4.69409157 4.86470433,5.07084606 5.47313094,5.07084606 C6.08141192,5.07084606 6.48471917,4.69187314 6.48471917,4.13112415 C6.48471917,3.56596535 6.08141192,3.19364771 5.47313094,3.19364771 Z" id="Fill-3"></path>
                    </g>
                </g>
            </g>
        </g>
    </g>
</svg>