<?xml version="1.0" encoding="UTF-8"?>
<svg width="24px" height="23px" viewBox="0 0 24 23" version="1.1" xmlns="http://www.w3.org/2000/svg" xmlns:xlink="http://www.w3.org/1999/xlink">
    <!-- Generator: Sketch 50.2 (55047) - http://www.bohemiancoding.com/sketch -->
    <title>github</title>
    <desc>Created with Sketch.</desc>
    <defs></defs>
    <g id="Dskt_UI" stroke="none" stroke-width="1" fill="none" fill-rule="evenodd">
        <g id="Oikos_1366_UI_v2_fix_menu3.3" transform="translate(-1236.000000, -6018.000000)" fill="#009972" fill-rule="nonzero">
            <g id="Bottom" transform="translate(0.000000, 5994.000000)">
                <g id="Group-14" transform="translate(1077.000000, 22.000000)">
                    <g id="Social-icons" transform="translate(159.000000, 2.000000)">
                        <path d="M12,0 C5.374,0 0,5.2792965 0,11.7907236 C0,17.0002583 3.438,21.4198146 8.207,22.9791378 C8.806,23.088202 9,22.7226896 9,22.4122005 L9,20.2171608 C5.662,20.9304996 4.967,18.8258554 4.967,18.8258554 C4.421,17.4630443 3.634,17.1004795 3.634,17.1004795 C2.545,16.3684721 3.717,16.384193 3.717,16.384193 C4.922,16.4667281 5.556,17.5996201 5.556,17.5996201 C6.626,19.4016357 8.363,18.8808788 9.048,18.5792328 C9.155,17.8177485 9.466,17.2969916 9.81,17.003206 C7.145,16.7035251 4.343,15.6924706 4.343,11.1756409 C4.343,9.88750432 4.812,8.8361648 5.579,8.01081414 C5.455,7.71309837 5.044,6.51339224 5.696,4.89020262 C5.696,4.89020262 6.704,4.57381821 8.997,6.0987518 C9.954,5.83739076 10.98,5.70671024 12,5.70179743 C13.02,5.70671024 14.047,5.83739076 15.006,6.0987518 C17.297,4.57381821 18.303,4.89020262 18.303,4.89020262 C18.956,6.5143748 18.545,7.71408093 18.421,8.01081414 C19.191,8.8361648 19.656,9.88848688 19.656,11.1756409 C19.656,15.7042613 16.849,16.70156 14.177,16.9933804 C14.607,17.3588929 15,18.0761619 15,19.1766294 L15,22.4122005 C15,22.7256372 15.192,23.0940973 15.801,22.9781552 C20.566,21.4168669 24,16.9982932 24,11.7907236 C24,5.2792965 18.627,0 12,0 Z" id="github"></path>
                    </g>
                </g>
            </g>
        </g>
    </g>
</svg>