<?xml version="1.0" encoding="UTF-8"?>
<svg width="24px" height="21px" viewBox="0 0 24 21" version="1.1" xmlns="http://www.w3.org/2000/svg" xmlns:xlink="http://www.w3.org/1999/xlink">
    <!-- Generator: Sketch 50.2 (55047) - http://www.bohemiancoding.com/sketch -->
    <title>telegram</title>
    <desc>Created with Sketch.</desc>
    <defs></defs>
    <g id="Dskt_UI" stroke="none" stroke-width="1" fill="none" fill-rule="evenodd">
        <g id="Oikos_1366_UI_v2_fix_menu3.3" transform="translate(-1314.000000, -6019.000000)" fill="#009972" fill-rule="nonzero">
            <g id="Bottom" transform="translate(0.000000, 5994.000000)">
                <g id="Group-14" transform="translate(1077.000000, 22.000000)">
                    <g id="Social-icons" transform="translate(159.000000, 2.000000)">
                        <path d="M78.4239113,11.0694237 L83.9539986,13.1436961 L86.0944814,20.0617161 C86.2314416,20.5047903 86.7705623,20.6685614 87.1284027,20.3745453 L90.2109668,17.8490785 C90.5340872,17.5844882 90.9943278,17.5713029 91.3320082,17.8176428 L96.8918555,21.8742925 C97.274656,22.1539173 97.8169767,21.9431133 97.9129769,21.4782512 L101.985862,1.78946673 C102.090662,1.28167198 101.594182,0.858054108 101.113061,1.04506022 L78.4174313,9.84391464 C77.8573506,10.0609897 77.8622306,10.8578962 78.4239113,11.0694237 Z M85.7495209,12.0395078 L96.5573751,5.3498186 C96.7516153,5.22994495 96.9514556,5.49389209 96.7846554,5.64938213 L87.8650437,13.9818469 C87.5515233,14.2751393 87.349283,14.6676431 87.292003,15.0936729 L86.9881626,17.3565594 C86.9479225,17.6586957 86.5256019,17.6886842 86.4426418,17.3962761 L85.2740803,13.2698408 C85.1402401,12.79919 85.3352804,12.2964603 85.7495209,12.0395078 Z" id="telegram"></path>
                    </g>
                </g>
            </g>
        </g>
    </g>
</svg>