<?xml version="1.0" encoding="UTF-8"?>
<svg width="20px" height="16px" viewBox="0 0 20 16" version="1.1" xmlns="http://www.w3.org/2000/svg" xmlns:xlink="http://www.w3.org/1999/xlink">
    <title>accelerate_icon</title>
    <g id="v2" stroke="none" stroke-width="1" fill="none" fill-rule="evenodd">
        <g id="accelerate_icon" fill="#E9574F" fill-rule="nonzero">
            <path d="M16.3182327,15.8847875 L14.1605006,13.7339935 C13.8218549,13.3964367 13.8209722,12.8482662 14.158529,12.5096205 C14.1625079,12.5056288 14.1665256,12.5016761 14.1705817,12.4977629 C14.5233006,12.1574636 15.083625,12.162484 15.4301897,12.5090488 L16.8193512,13.8982103 L16.8193512,13.8982103 C17.5439062,12.6610887 17.9210805,11.2513224 17.9110738,9.81767339 C17.9110738,5.36974251 14.3053134,1.76398211 9.85738255,1.76398211 C5.40945168,1.76398211 1.80369128,5.36974251 1.80369128,9.81767339 C1.80170306,11.2361554 2.17859754,12.6294293 2.89541386,13.8534676 L4.26639175,12.5129559 C4.62236592,12.1648922 5.19214231,12.1680931 5.54418344,12.5201342 C5.89451118,12.870462 5.89451118,13.4384554 5.54418345,13.7887832 C5.54384297,13.7891237 5.54350221,13.7894639 5.54316117,13.7898038 L3.39653245,15.9295302 L3.39653245,15.9295302 L2.05425057,15.8489933 C-0.562944176,12.4453895 -0.672137828,7.73808214 1.78442256,4.21678439 C4.24098295,0.695486632 8.69650264,-0.82734312 12.7944398,0.453725741 C16.8923771,1.7347946 19.6872272,5.52418494 19.7007859,9.81767339 C19.7024675,11.9840859 18.9848414,14.0897522 17.6605145,15.8042506 L16.3182327,15.8847875 Z" id="路径"></path>
            <polygon id="路径" points="7.81711409 14.0950783 9.85738255 15.9832215 11.897651 14.0950783 9.85738255 4.74384788"></polygon>
        </g>
    </g>
</svg>