<?xml version="1.0" encoding="UTF-8"?>
<svg width="98px" height="30px" viewBox="0 0 98 30" version="1.1" xmlns="http://www.w3.org/2000/svg" xmlns:xlink="http://www.w3.org/1999/xlink">
    <title>logo</title>
    <g id="页面-1" stroke="none" stroke-width="1" fill="none" fill-rule="evenodd">
        <g id="兑换/未登录" transform="translate(-20.000000, -59.000000)">
            <g id="logo" transform="translate(20.000000, 59.000000)">
                <g>
                    <path d="M57.9316793,20.6726739 C59.6385815,20.6726739 60.6020054,21.8984348 60.6020054,23.8127283 C60.6020054,24.05175 60.5819511,24.2907717 60.5491793,24.4559348 L56.0429837,24.4559348 C56.1238533,25.8735978 56.9905924,26.7926739 58.2662446,26.7926739 C58.9084728,26.7926739 59.4355924,26.5854457 59.9312446,26.2578913 L60.3368967,27.0008804 C59.7501033,27.3846848 59.0372772,27.6947935 58.1270054,27.6947935 C56.3436359,27.6947935 54.9235272,26.3907717 54.9235272,24.1924565 C54.9235272,22.0145217 56.3914076,20.6726739 57.9316793,20.6726739 Z M64.1293207,18.9612391 L64.1293207,20.8378696 L65.9423641,20.8378696 L65.9423641,21.7602065 L64.1293207,21.7602065 L64.1293207,25.4803696 C64.1293207,26.2983587 64.393125,26.7723261 65.1641576,26.7723261 C65.401712,26.7723261 65.7090489,26.6824891 65.926712,26.5926522 L66.1453533,27.447163 C65.7698641,27.574663 65.3213315,27.6948261 64.9036141,27.6948261 C63.4792663,27.6948261 62.9969837,26.7923804 62.9969837,25.4608043 L62.9969837,21.7602065 L62.0012772,21.7602065 L62.0012772,20.9029239 L63.0478533,20.8378696 L63.1838315,18.9612391 L64.1293207,18.9612391 Z M81.2592554,20.6726576 C82.8997989,20.6726576 84.3605054,21.9593967 84.3605054,24.1924402 C84.3605054,26.408038 82.8997989,27.6947772 81.2592554,27.6947772 C79.619038,27.6947772 78.1586576,26.408038 78.1586576,24.1924402 C78.1586576,21.9593967 79.619038,20.6726576 81.2592554,20.6726576 Z M47.1196467,18.4945109 L50.3898098,24.1746196 L51.3649728,26.0453804 L51.4200815,26.0453804 C51.3623641,25.1339674 51.2739946,24.1154348 51.2739946,23.1707609 L51.2739946,18.4945109 L52.3658967,18.4945109 L52.3658967,27.5297283 L51.178288,27.5297283 L47.9084511,21.8444022 L46.932962,19.9788587 L46.8781793,19.9788587 C46.9360598,20.8932065 47.0242663,21.8566304 47.0242663,22.8013043 L47.0242663,27.5297283 L45.9323641,27.5297283 L45.9323641,18.4945109 L47.1196467,18.4945109 Z M68.4981685,20.837788 L69.4909402,24.7032228 C69.6360489,25.3394185 69.7606141,25.9407228 69.8882772,26.5695815 L69.9433859,26.5695815 C70.0880054,25.9407228 70.2329511,25.3291467 70.3981141,24.7032228 L71.4316467,20.837788 L72.5369185,20.837788 L73.5803967,24.7032228 C73.7458859,25.3394185 73.8905054,25.9407228 74.0457228,26.5695815 L74.1008315,26.5695815 C74.2456141,25.9407228 74.3703424,25.3394185 74.5154511,24.7032228 L75.4909402,20.837788 L76.5696359,20.837788 L74.773875,27.5297446 L73.3955054,27.5297446 L72.430125,23.9338207 C72.2678967,23.3003967 72.1402337,22.6844185 71.9776793,22.0058315 L71.9227337,22.0058315 C71.777625,22.6844185 71.6429511,23.3178424 71.4631141,23.9511033 L70.525288,27.5297446 L69.2018641,27.5297446 L67.3407228,20.837788 L68.4981685,20.837788 Z M89.7761576,20.672625 C90.0724076,20.672625 90.280288,20.710288 90.490288,20.8102337 L90.2793098,21.8036576 C90.0486033,21.7312663 89.897788,21.6934402 89.6297446,21.6934402 C89.0647989,21.6934402 88.3894728,22.1008859 87.9370272,23.2327337 L87.9370272,27.5297446 L86.8045272,27.5297446 L86.8045272,20.837788 L87.7399076,20.837788 L87.8357772,22.056538 L87.8736033,22.056538 C88.3394185,21.2074076 89.0233859,20.672625 89.7761576,20.672625 Z M93.3814728,17.7219783 L93.3814728,24.3642065 L93.4189728,24.3642065 L96.2759837,20.8377391 L97.5314185,20.8377391 L95.2897337,23.5273043 L97.825712,27.5296957 L96.5877228,27.5296957 L94.6367446,24.313663 L93.3814728,25.7732283 L93.3814728,27.5296957 L92.2690272,27.5296957 L92.2690272,17.7219783 L93.3814728,17.7219783 Z M81.2592554,21.615375 C80.1088207,21.615375 79.3284946,22.6590163 79.3284946,24.1924402 C79.3284946,25.7260272 80.1088207,26.7522228 81.2592554,26.7522228 C82.4103424,26.7522228 83.1905054,25.7260272 83.1905054,24.1924402 C83.1905054,22.6590163 82.4103424,21.615375 81.2592554,21.615375 Z M57.9517337,21.5747935 C57.0111359,21.5747935 56.1703207,22.3300109 56.032712,23.6449565 L59.6015707,23.6449565 C59.6015707,22.3037609 58.9983098,21.5747935 57.9517337,21.5747935 Z M83.0044565,5.89322283 C84.2496196,5.89322283 85.2472826,6.39930978 85.9755978,6.9637663 L85.0146196,8.25278804 C84.3880435,7.79382065 83.7582065,7.47344022 83.0553261,7.47344022 C82.1561413,7.47344022 81.7302717,7.90322283 81.7302717,8.46392935 C81.7302717,9.1702337 82.6328804,9.43974457 83.6015217,9.7964837 C84.8104891,10.2481141 86.1650543,10.8306685 86.1650543,12.4982772 C86.1650543,14.0347989 84.948587,15.272788 82.69125,15.272788 C81.4677717,15.272788 80.17875,14.7486033 79.304837,14.027462 L80.2808152,12.6949076 C81.0745109,13.3139837 81.8427717,13.6925707 82.7496196,13.6925707 C83.7251087,13.6925707 84.1842391,13.2337663 84.1842391,12.6221902 C84.1842391,11.8718641 83.2155978,11.5369728 82.2617935,11.1728967 C81.0890217,10.7323533 79.7494565,10.0588207 79.7494565,8.56566848 C79.7494565,7.01463587 81.0016304,5.89322283 83.0044565,5.89322283 Z M60.4432826,5.89320652 C62.8610543,5.89320652 64.1352391,7.64103261 64.1352391,10.1386957 C64.1352391,10.5392935 64.0920326,10.9398913 64.0444239,11.1583696 L58.3677391,11.1583696 C58.5426848,12.7459239 59.5620326,13.6488587 61.0043152,13.6488587 C61.768663,13.6488587 62.4239348,13.4085326 63.0796957,13.0007609 L63.7931739,14.3042935 C62.9414348,14.8796739 61.8633913,15.2727717 60.7273043,15.2727717 C58.258663,15.2727717 56.3215435,13.5396196 56.3215435,10.5903261 C56.3215435,7.68472826 58.3385543,5.89320652 60.4432826,5.89320652 Z M77.5217935,6.11178261 L77.5217935,15.0543913 L75.4244022,15.0543913 L75.4244022,6.11178261 L77.5217935,6.11178261 Z M48.8917174,3.1477663 C52.5401413,3.1477663 54.6957391,5.11407065 54.6957391,9.05369022 C54.6957391,12.9934728 52.5401413,15.0543424 49.0007935,15.0543424 L45.7167717,15.0543424 L45.7167717,3.1477663 L48.8917174,3.1477663 Z M73.5177717,3.14781522 L73.5177717,4.92466304 L68.4345652,4.92466304 L68.4345652,8.30373913 L72.7602717,8.30373913 L72.7602717,10.080587 L68.4345652,10.080587 L68.4345652,15.0543913 L66.322663,15.0543913 L66.322663,3.14781522 L73.5177717,3.14781522 Z M48.7532935,4.8592337 L47.8285109,4.8592337 L47.8285109,13.343038 L48.7532935,13.343038 C51.1490543,13.343038 52.5254674,11.9812989 52.5254674,9.05369022 C52.5254674,6.12624457 51.1490543,4.8592337 48.7532935,4.8592337 Z M60.4869783,7.51728261 C59.4457826,7.51728261 58.5281739,8.29646739 58.3460543,9.73092391 L62.3223587,9.73092391 C62.3223587,8.35483696 61.7104565,7.51728261 60.4869783,7.51728261 Z M76.4804348,2.172 C77.2230978,2.172 77.7767935,2.65265217 77.7767935,3.35895652 C77.7767935,4.05091304 77.2230978,4.54607609 76.4804348,4.54607609 C75.7376087,4.54607609 75.1840761,4.05091304 75.1840761,3.35895652 C75.1840761,2.65265217 75.7376087,2.172 76.4804348,2.172 Z" id="形状结合备份-2" fill="#000000"></path>
                    <path d="M20.7794022,2.63559783 L20.7145109,2.52032609 C20.4668478,2.08043478 20.1593478,1.69271739 19.8070109,1.36141304 C19.8068478,1.36141304 19.8068478,1.36125 19.8066848,1.36125 C19.7525543,1.31038043 19.6969565,1.26097826 19.6410326,1.21288043 C19.6336957,1.20652174 19.6265217,1.20016304 19.6190217,1.19396739 C19.5696196,1.15206522 19.5192391,1.11163043 19.4682065,1.07184783 C19.4530435,1.05994565 19.4380435,1.04804348 19.4230435,1.03646739 C19.3780435,1.00222826 19.3323913,0.969130435 19.2865761,0.936684783 C19.2642391,0.920706522 19.2419022,0.904728261 19.2192391,0.88923913 C19.1779891,0.861032609 19.13625,0.833641304 19.0941848,0.80673913 C19.0659783,0.788478261 19.0376087,0.770543478 19.0090761,0.752934783 C18.9694565,0.728641304 18.9296739,0.705163043 18.8895652,0.68201087 C18.8584239,0.663913043 18.8269565,0.646304348 18.795163,0.628858696 C18.753913,0.606195652 18.712337,0.584021739 18.6704348,0.562663043 C18.6419022,0.547826087 18.6130435,0.533478261 18.5840217,0.519456522 C18.53625,0.495978261 18.4881522,0.473152174 18.4397283,0.451304348 C18.4193478,0.442173913 18.3991304,0.433369565 18.378913,0.424565217 C18.3210326,0.399456522 18.2628261,0.374836957 18.2041304,0.351847826 C18.195163,0.348423913 18.1865217,0.345163043 18.1777174,0.341902174 C17.6659239,0.145108696 17.1225,0.0304891304 16.5702717,0.0052173913 C16.5502174,0.00423913043 16.53,0.00423913043 16.5097826,0.00358695652 C16.4536957,0.00163043478 16.3974457,2.31698718e-14 16.3411957,2.31698718e-14 C16.2849457,2.31698718e-14 16.2286957,0.00163043478 16.1724457,0.00358695652 C16.1523913,0.00423913043 16.1321739,0.00423913043 16.1119565,0.0052173913 C15.5598913,0.0304891304 15.0164674,0.144945652 14.505163,0.34173913 C14.4960326,0.345163043 14.4869022,0.348423913 14.4780978,0.35201087 C14.4194022,0.374836957 14.3615217,0.399293478 14.3038043,0.424402174 C14.2832609,0.433369565 14.2627174,0.442173913 14.242337,0.451467391 C14.193913,0.473152174 14.1461413,0.495978261 14.0985326,0.519293478 C14.0695109,0.533478261 14.0403261,0.547826087 14.0113043,0.562826087 C13.9694022,0.584184783 13.9281522,0.606358696 13.8869022,0.629021739 C13.8551087,0.646304348 13.8239674,0.663913043 13.7928261,0.681847826 C13.7525543,0.705 13.7127717,0.728641304 13.6733152,0.752934783 C13.6446196,0.770543478 13.61625,0.788478261 13.5880435,0.80673913 C13.5459783,0.833641304 13.5042391,0.861032609 13.4629891,0.88923913 C13.4403261,0.904728261 13.4183152,0.920706522 13.3958152,0.936521739 C13.349837,0.969130435 13.3041848,1.00222826 13.2593478,1.03646739 C13.2440217,1.04804348 13.2290217,1.05994565 13.2141848,1.07168478 C13.1631522,1.11146739 13.1127717,1.15190217 13.0633696,1.19380435 C13.0558696,1.20016304 13.0485326,1.20668478 13.0411957,1.21304348 C12.9849457,1.2611413 12.9296739,1.31038043 12.8755435,1.36108696 C12.8753804,1.36125 12.8752174,1.36157609 12.8750543,1.36173913 C12.5227174,1.69288043 12.2153804,2.08059783 11.9677174,2.52032609 L11.9031522,2.63527174 L0.830706522,22.3116848 L0.611413043,22.7016848 C0.241304348,23.3594022 0.0448369565,24.063913 0.00684782609,24.7654891 C0.00668478261,24.7680978 0.00635869565,24.7705435 0.00619565217,24.7729891 C0.0052173913,24.7920652 0.00538043478,24.8109783 0.00456521739,24.8300543 C0.00211956522,24.8918478 4.17057693e-14,24.9536413 4.17057693e-14,25.0159239 C4.17057693e-14,25.0747826 0.00163043478,25.1336413 0.00375,25.1925 C0.00440217391,25.2094565 0.00440217391,25.2267391 0.00505434783,25.2436957 C0.0829891304,26.87625 1.01021739,28.4313587 2.59483696,29.272663 C5.01065217,30.555163 8.03951087,29.692663 9.36,27.3461413 L13.3909239,20.1829891 L16.3411957,14.94 L20.7164674,7.16461957 C21.5382065,5.70440217 21.5041304,4.0136413 20.7794022,2.63559783" id="Fill-117备份" fill="#07D79B"></path>
                    <path d="M20.7165,7.16466848 L16.3412283,14.9398859 L19.2915,20.182875 L27.8405217,20.182875 C29.5094348,20.182875 30.9807391,21.0271141 31.8513913,22.3117337 L20.7794348,2.63564674 C21.504163,4.01369022 21.5382391,5.70428804 20.7165,7.16466848" id="Fill-43备份" fill="#00A372"></path>
                    <path d="M32.6777446,24.8299728 C32.6769293,24.8108967 32.6770924,24.7919837 32.6761141,24.7729076 C32.6759511,24.7702989 32.675625,24.7676902 32.675462,24.7650815 C32.6704076,24.6682337 32.660788,24.5725272 32.6503533,24.4771467 C32.6428533,24.4140489 32.6337228,24.3509511 32.6237772,24.2878533 C32.6200272,24.264212 32.6166033,24.2407337 32.6126902,24.2174185 C32.5921467,24.0998641 32.5657337,23.9826359 32.5362228,23.8658967 C32.5306793,23.844375 32.5251359,23.8228533 32.5194293,23.8011685 C32.4876359,23.682962 32.4522554,23.5650815 32.4106793,23.4481793 C32.4105163,23.4475272 32.4101902,23.446875 32.4098641,23.4462228 C32.3700815,23.334212 32.3242663,23.2233424 32.2753533,23.113125 C32.2634511,23.0860598 32.2512228,23.0589946 32.2386685,23.0320924 C32.1868207,22.9208967 32.132038,22.8105163 32.0708967,22.7017663 L31.8514402,22.3117663 C30.980788,21.0271467 29.5093207,20.1829076 27.8405707,20.1829076 L19.2913859,20.1829076 L13.3908424,20.1829076 L9.35991848,27.3460598 C8.03959239,29.6925815 5.0107337,30.5550815 2.59475543,29.2725815 C1.01013587,28.4314402 0.0830706522,26.8763315 0.00497282609,25.2436141 C0.0307336957,25.8147554 0.15513587,26.3599728 0.361875,26.862962 C0.398070652,26.9511685 0.435896739,27.0385598 0.477146739,27.1239946 C1.25910326,28.7467663 2.91953804,29.866712 4.84149457,29.866712 L4.84230978,29.866712 L27.8399185,29.866712 L27.8405707,29.866712 C29.7626902,29.866712 31.423125,28.7467663 32.2052446,27.1239946 C32.2463315,27.0385598 32.2841576,26.9511685 32.3205163,26.862962 C32.5270924,26.3599728 32.6516576,25.8147554 32.6770924,25.2436141 C32.6779076,25.2266576 32.6777446,25.209538 32.6783967,25.1925815 C32.6806793,25.1337228 32.6823098,25.0748641 32.6823098,25.0160054 C32.6823098,24.9535598 32.6801902,24.8917663 32.6777446,24.8299728" id="Fill-55备份" fill="#02C698"></path>
                </g>
            </g>
        </g>
    </g>
</svg>