<?xml version="1.0" standalone="no"?><!DOCTYPE svg PUBLIC "-//W3C//DTD SVG 1.1//EN" "http://www.w3.org/Graphics/SVG/1.1/DTD/svg11.dtd"><svg t="1600497648372" class="icon" viewBox="0 0 1024 1024" version="1.1" xmlns="http://www.w3.org/2000/svg" p-id="2992" xmlns:xlink="http://www.w3.org/1999/xlink" width="200" height="200"><defs><style type="text/css"></style></defs><path d="M576 416C576 433.664 590.336 448 608 448l256 0C881.664 448 896 433.664 896 416l0-256C896 142.336 881.664 128 864 128S832 142.336 832 160l0 164.48C758.528 206.848 628.864 128 480 128 250.24 128 64 314.24 64 544S250.24 960 480 960c204.416 0 374.4-147.456 409.344-341.824l-1.344-0.32c1.088-3.136 1.984-6.4 1.984-9.856 0-17.664-14.336-32-32-32-16.384 0-29.248 12.352-31.232 28.224C798.208 769.92 653.888 896 480 896 285.632 896 128 738.368 128 544S285.632 192 480 192c136.64 0 254.4 78.272 312.768 192L608 384C590.336 384 576 398.336 576 416z" p-id="2993" fill="#ffffff"></path></svg>