<?xml version="1.0" encoding="UTF-8"?>
<svg width="14px" height="14px" viewBox="0 0 14 14" version="1.1" xmlns="http://www.w3.org/2000/svg" xmlns:xlink="http://www.w3.org/1999/xlink">
    <title>tips_icon_btn</title>
    <g id="页面-1" stroke="none" stroke-width="1" fill="none" fill-rule="evenodd">
        <g id="兑换" transform="translate(-98.000000, -495.000000)">
            <g id="编组" transform="translate(20.000000, 459.000000)">
                <g id="tips_icon_btn" transform="translate(78.000000, 36.000000)">
                    <g>
                        <circle id="椭圆形" stroke="#979797" cx="7" cy="7" r="6.5"></circle>
                        <path d="M7.276,9.372 L7.276,9.168 C7.276,8.88 7.336,8.616 7.468,8.376 C7.576,8.16 7.744,7.944 7.972,7.752 C8.536,7.26 8.872,6.948 8.98,6.816 C9.28,6.432 9.436,5.94 9.436,5.352 C9.436,4.632 9.196,4.056 8.716,3.636 C8.236,3.204 7.612,3 6.844,3 C5.956,3 5.26,3.252 4.756,3.768 C4.252,4.272 4,4.956 4,5.832 L5.26,5.832 C5.26,5.304 5.368,4.896 5.584,4.608 C5.824,4.26 6.22,4.092 6.76,4.092 C7.192,4.092 7.54,4.212 7.78,4.452 C8.008,4.692 8.128,5.016 8.128,5.436 C8.128,5.748 8.008,6.036 7.792,6.312 L7.588,6.54 C6.844,7.2 6.388,7.692 6.232,8.028 C6.064,8.34 5.992,8.724 5.992,9.168 L5.992,9.372 L7.276,9.372 Z M6.628,11.736 C6.868,11.736 7.084,11.652 7.252,11.496 C7.42,11.328 7.516,11.124 7.516,10.872 C7.516,10.62 7.432,10.416 7.264,10.26 C7.096,10.092 6.88,10.02 6.628,10.02 C6.388,10.02 6.172,10.092 6.004,10.26 C5.836,10.416 5.752,10.62 5.752,10.872 C5.752,11.112 5.836,11.316 6.004,11.484 C6.172,11.652 6.388,11.736 6.628,11.736 Z" id="？" fill="#979797" fill-rule="nonzero"></path>
                    </g>
                </g>
            </g>
        </g>
    </g>
</svg>