<svg 
 xmlns="http://www.w3.org/2000/svg"
 xmlns:xlink="http://www.w3.org/1999/xlink"
 width="52px" height="62px">
<defs>
<filter id="Filter_0">
    <feFlood flood-color="rgb(247, 186, 176)" flood-opacity="1" result="floodOut" />
    <feComposite operator="atop" in="floodOut" in2="SourceGraphic" result="compOut" />
    <feBlend mode="normal" in="compOut" in2="SourceGraphic" />
</filter>
<linearGradient id="PSgrad_0" x1="0%" x2="0%" y1="100%" y2="0%">
  <stop offset="0%" stop-color="rgb(231,119,107)" stop-opacity="1" />
  <stop offset="100%" stop-color="rgb(248,192,182)" stop-opacity="1" />
</linearGradient>
<filter id="Filter_1">
    <feOffset in="SourceAlpha" dx="0" dy="3" />
    <feGaussianBlur result="blurOut" stdDeviation="2.646" />
    <feFlood flood-color="rgb(208, 109, 90)" result="floodOut" />
    <feComposite operator="out" in="floodOut" in2="blurOut" result="compOut" />
    <feComposite operator="in" in="compOut" in2="SourceAlpha" />
    <feComponentTransfer><feFuncA type="linear" slope="0.35"/></feComponentTransfer>
    <feBlend mode="multiply" in2="SourceGraphic" />
</filter>

</defs>
<g filter="url(#Filter_0)">
<path fill-rule="evenodd"  fill="rgb(253, 134, 126)"
 d="M15.750,0.633 L18.625,0.633 L18.625,23.289 L15.750,23.289 C14.093,23.289 12.750,21.946 12.750,20.289 L12.750,3.633 C12.750,1.976 14.093,0.633 15.750,0.633 Z"/>
<path fill-rule="evenodd"  fill="rgb(253, 134, 126)"
 d="M23.438,0.633 L29.312,0.633 L29.312,23.289 L26.438,23.289 C24.781,23.289 23.438,21.946 23.438,20.289 L23.438,0.633 Z"/>
<path fill-rule="evenodd"  fill="rgb(253, 134, 126)"
 d="M34.094,0.633 L36.969,0.633 C38.626,0.633 39.969,1.976 39.969,3.633 L39.969,23.289 L37.094,23.289 C35.437,23.289 34.094,21.946 34.094,20.289 L34.094,0.633 Z"/>
</g>
<path fill-rule="evenodd"  fill="rgb(255, 233, 5)"
 d="M26.094,11.289 C40.091,11.289 51.438,22.636 51.438,36.633 C51.438,50.630 40.091,61.977 26.094,61.977 C12.097,61.977 0.750,50.630 0.750,36.633 C0.750,22.636 12.097,11.289 26.094,11.289 Z"/>
<path fill="url(#PSgrad_0)"
 d="M26.094,11.289 C40.091,11.289 51.438,22.636 51.438,36.633 C51.438,50.630 40.091,61.977 26.094,61.977 C12.097,61.977 0.750,50.630 0.750,36.633 C0.750,22.636 12.097,11.289 26.094,11.289 Z"/>
<g filter="url(#Filter_1)">
<path fill-rule="evenodd"  fill="rgb(224, 121, 110)"
 d="M26.094,17.977 C36.415,17.977 44.781,26.336 44.781,36.648 C44.781,46.961 36.415,55.320 26.094,55.320 C15.773,55.320 7.406,46.961 7.406,36.648 C7.406,26.336 15.773,17.977 26.094,17.977 Z"/>
</g>
</svg>