<svg 
 xmlns="http://www.w3.org/2000/svg"
 xmlns:xlink="http://www.w3.org/1999/xlink"
 width="52px" height="62px">
<defs>
<filter id="Filter_0">
    <feFlood flood-color="rgb(112, 109, 107)" flood-opacity="1" result="floodOut" />
    <feComposite operator="atop" in="floodOut" in2="SourceGraphic" result="compOut" />
    <feBlend mode="normal" in="compOut" in2="SourceGraphic" />
</filter>
<linearGradient id="PSgrad_0" x1="0%" x2="0%" y1="100%" y2="0%">
  <stop offset="0%" stop-color="rgb(60,60,59)" stop-opacity="1" />
  <stop offset="100%" stop-color="rgb(115,111,110)" stop-opacity="1" />
</linearGradient>
<filter id="Filter_1">
    <feOffset in="SourceAlpha" dx="0" dy="3" />
    <feGaussianBlur result="blurOut" stdDeviation="2.646" />
    <feFlood flood-color="rgb(217, 97, 66)" result="floodOut" />
    <feComposite operator="out" in="floodOut" in2="blurOut" result="compOut" />
    <feComposite operator="in" in="compOut" in2="SourceAlpha" />
    <feComponentTransfer><feFuncA type="linear" slope="0.35"/></feComponentTransfer>
    <feBlend mode="multiply" in2="SourceGraphic" />
</filter>

</defs>
<g filter="url(#Filter_0)">
<path fill-rule="evenodd"  fill="rgb(192, 228, 145)"
 d="M15.750,0.508 L18.625,0.508 L18.625,23.164 L15.750,23.164 C14.093,23.164 12.750,21.821 12.750,20.164 L12.750,3.508 C12.750,1.851 14.093,0.508 15.750,0.508 Z"/>
<path fill-rule="evenodd"  fill="rgb(192, 228, 145)"
 d="M23.438,0.508 L29.312,0.508 L29.312,23.164 L26.438,23.164 C24.781,23.164 23.438,21.821 23.438,20.164 L23.438,0.508 Z"/>
<path fill-rule="evenodd"  fill="rgb(192, 228, 145)"
 d="M34.094,0.508 L36.969,0.508 C38.626,0.508 39.969,1.851 39.969,3.508 L39.969,23.164 L37.094,23.164 C35.437,23.164 34.094,21.821 34.094,20.164 L34.094,0.508 Z"/>
</g>
<path fill-rule="evenodd"  fill="rgb(255, 233, 5)"
 d="M26.094,11.164 C40.091,11.164 51.438,22.511 51.438,36.508 C51.438,50.505 40.091,61.852 26.094,61.852 C12.097,61.852 0.750,50.505 0.750,36.508 C0.750,22.511 12.097,11.164 26.094,11.164 Z"/>
<path fill="url(#PSgrad_0)"
 d="M26.094,11.164 C40.091,11.164 51.438,22.511 51.438,36.508 C51.438,50.505 40.091,61.852 26.094,61.852 C12.097,61.852 0.750,50.505 0.750,36.508 C0.750,22.511 12.097,11.164 26.094,11.164 Z"/>
<g filter="url(#Filter_1)">
<path fill-rule="evenodd"  fill="rgb(94, 91, 89)"
 d="M26.094,17.852 C36.415,17.852 44.781,26.211 44.781,36.523 C44.781,46.836 36.415,55.195 26.094,55.195 C15.773,55.195 7.406,46.836 7.406,36.523 C7.406,26.211 15.773,17.852 26.094,17.852 Z"/>
</g>
</svg>