<svg 
 xmlns="http://www.w3.org/2000/svg"
 xmlns:xlink="http://www.w3.org/1999/xlink"
 width="52px" height="62px">
<defs>
<filter id="Filter_0">
    <feFlood flood-color="rgb(188, 141, 219)" flood-opacity="1" result="floodOut" />
    <feComposite operator="atop" in="floodOut" in2="SourceGraphic" result="compOut" />
    <feBlend mode="normal" in="compOut" in2="SourceGraphic" />
</filter>
<linearGradient id="PSgrad_0" x1="0%" x2="0%" y1="100%" y2="0%">
  <stop offset="0%" stop-color="rgb(181,104,227)" stop-opacity="1" />
  <stop offset="100%" stop-color="rgb(190,143,221)" stop-opacity="1" />
</linearGradient>
<filter id="Filter_1">
    <feOffset in="SourceAlpha" dx="0" dy="3" />
    <feGaussianBlur result="blurOut" stdDeviation="2.646" />
    <feFlood flood-color="rgb(148, 44, 212)" result="floodOut" />
    <feComposite operator="out" in="floodOut" in2="blurOut" result="compOut" />
    <feComposite operator="in" in="compOut" in2="SourceAlpha" />
    <feComponentTransfer><feFuncA type="linear" slope="0.35"/></feComponentTransfer>
    <feBlend mode="multiply" in2="SourceGraphic" />
</filter>

</defs>
<g filter="url(#Filter_0)">
<path fill-rule="evenodd"  fill="rgb(253, 134, 126)"
 d="M15.596,0.422 L18.471,0.422 L18.471,23.078 L15.596,23.078 C13.939,23.078 12.596,21.735 12.596,20.078 L12.596,3.422 C12.596,1.765 13.939,0.422 15.596,0.422 Z"/>
<path fill-rule="evenodd"  fill="rgb(253, 134, 126)"
 d="M23.283,0.422 L29.158,0.422 L29.158,23.078 L26.283,23.078 C24.627,23.078 23.283,21.735 23.283,20.078 L23.283,0.422 Z"/>
<path fill-rule="evenodd"  fill="rgb(253, 134, 126)"
 d="M33.940,0.422 L36.815,0.422 C38.471,0.422 39.815,1.765 39.815,3.422 L39.815,23.078 L36.940,23.078 C35.283,23.078 33.940,21.735 33.940,20.078 L33.940,0.422 Z"/>
</g>
<path fill-rule="evenodd"  fill="rgb(255, 233, 5)"
 d="M25.940,11.078 C39.937,11.078 51.283,22.425 51.283,36.422 C51.283,50.419 39.937,61.766 25.940,61.766 C11.943,61.766 0.596,50.419 0.596,36.422 C0.596,22.425 11.943,11.078 25.940,11.078 Z"/>
<path fill="url(#PSgrad_0)"
 d="M25.940,11.078 C39.937,11.078 51.283,22.425 51.283,36.422 C51.283,50.419 39.937,61.766 25.940,61.766 C11.943,61.766 0.596,50.419 0.596,36.422 C0.596,22.425 11.943,11.078 25.940,11.078 Z"/>
<g filter="url(#Filter_1)">
<path fill-rule="evenodd"  fill="rgb(181, 109, 217)"
 d="M25.940,17.766 C36.260,17.766 44.627,26.125 44.627,36.438 C44.627,46.750 36.260,55.109 25.940,55.109 C15.619,55.109 7.252,46.750 7.252,36.438 C7.252,26.125 15.619,17.766 25.940,17.766 Z"/>
</g>
</svg>