<?xml version="1.0" standalone="no"?><!DOCTYPE svg PUBLIC "-//W3C//DTD SVG 1.1//EN" "http://www.w3.org/Graphics/SVG/1.1/DTD/svg11.dtd"><svg t="1602082266170" class="icon" viewBox="0 0 1024 1024" version="1.1" xmlns="http://www.w3.org/2000/svg" p-id="4383" xmlns:xlink="http://www.w3.org/1999/xlink" width="48" height="48"><defs><style type="text/css"></style></defs><path d="M646.037333 511.509333l224.874667-307.381333a74.741333 74.741333 0 0 0-16.074667-104.362667A74.485333 74.485333 0 0 0 810.773333 85.333333H213.226667C172.053333 85.333333 138.666667 118.762667 138.666667 160c0 15.872 5.045333 31.328 14.410666 44.128l224.885334 307.381333V906.666667c0 17.674667 14.304 32 31.957333 32a31.978667 31.978667 0 0 0 31.946667-32V501.034667c0-6.794667-2.165333-13.418667-6.176-18.912L204.629333 166.304A10.677333 10.677333 0 0 1 213.226667 149.333333h597.546666a10.666667 10.666667 0 0 1 8.586667 16.970667L588.298667 482.122667a32.032 32.032 0 0 0-6.176 18.912v315.413333c0 17.674667 14.304 32 31.957333 32a31.978667 31.978667 0 0 0 31.957333-32V511.509333z" p-id="4384"></path></svg>