<?xml version="1.0" encoding="UTF-8"?>
<svg width="10px" height="17px" viewBox="0 0 10 17" version="1.1" xmlns="http://www.w3.org/2000/svg" xmlns:xlink="http://www.w3.org/1999/xlink">
    <!-- Generator: Sketch 60.1 (88133) - https://sketch.com -->
    <title>jianto_bt</title>
    <desc>Created with Sketch.</desc>
    <g id="v3" stroke="none" stroke-width="1" fill="none" fill-rule="evenodd">
        <g id="未登录" transform="translate(-248.000000, -155.000000)" fill="#FFFFFF">
            <path d="M256.778175,163.778175 C256.702091,163.854258 256.616798,163.915519 256.525884,163.961956 L249.707107,170.778175 C249.316582,171.168699 248.683418,171.168699 248.292893,170.778175 C247.902369,170.38765 247.902369,169.754485 248.292893,169.363961 L248.292893,169.363961 L254.62,163.035 L248.292893,156.707107 C247.902369,156.316582 247.902369,155.683418 248.292893,155.292893 C248.683418,154.902369 249.316582,154.902369 249.707107,155.292893 L256.525884,162.109111 C256.616798,162.155549 256.702091,162.21681 256.778175,162.292893 C256.958417,162.473135 257.05547,162.705064 257.069335,162.940969 L257.069335,163.130099 C257.05547,163.366004 256.958417,163.597933 256.778175,163.778175 Z" id="jianto_bt"></path>
        </g>
    </g>
</svg>