<?xml version="1.0" encoding="UTF-8"?>
<svg width="10px" height="17px" viewBox="0 0 10 17" version="1.1" xmlns="http://www.w3.org/2000/svg" xmlns:xlink="http://www.w3.org/1999/xlink">
    <!-- Generator: Sketch 60.1 (88133) - https://sketch.com -->
    <title>jiantou_bt</title>
    <desc>Created with Sketch.</desc>
    <g id="v3" stroke="none" stroke-width="1" fill="none" fill-rule="evenodd">
        <g id="未登录" transform="translate(-248.000000, -81.000000)" fill="#E7EBEE">
            <path d="M256.778175,89.7781746 C256.702091,89.854258 256.616798,89.9155186 256.525884,89.9619563 L249.707107,96.7781746 C249.316582,97.1686989 248.683418,97.1686989 248.292893,96.7781746 C247.902369,96.3876503 247.902369,95.7544853 248.292893,95.363961 L248.292893,95.363961 L254.62,89.035 L248.292893,82.7071068 C247.902369,82.3165825 247.902369,81.6834175 248.292893,81.2928932 C248.683418,80.9023689 249.316582,80.9023689 249.707107,81.2928932 L256.525884,88.1091115 C256.616798,88.1555492 256.702091,88.2168098 256.778175,88.2928932 C256.958417,88.4731352 257.05547,88.705064 257.069335,88.9409686 L257.069335,89.1300992 C257.05547,89.3660039 256.958417,89.5979326 256.778175,89.7781746 Z" id="jiantou_bt"></path>
        </g>
    </g>
</svg>