<?xml version="1.0" standalone="no"?><!DOCTYPE svg PUBLIC "-//W3C//DTD SVG 1.1//EN" "http://www.w3.org/Graphics/SVG/1.1/DTD/svg11.dtd"><svg t="1603457105987" class="icon" viewBox="0 0 1024 1024" version="1.1" xmlns="http://www.w3.org/2000/svg" p-id="5529" xmlns:xlink="http://www.w3.org/1999/xlink" width="16" height="16"><defs><style type="text/css"></style></defs><path d="M128 112h768c35.346 0 64 29.168 64 65.148v556.034c0 35.98-28.654 65.148-64 65.148H640l-80.166 91.803c-23.483 26.892-63.935 29.314-90.353 5.41a64.586 64.586 0 0 1-5.315-5.41L384 798.33H128c-35.346 0-64-29.168-64-65.148V177.148C64 141.168 92.654 112 128 112z m342.207 130c-0.502 0-1.004 0.018-1.504 0.055-10.02 0.73-17.47 8.46-16.64 17.266l31.119 330c0.782 8.296 8.672 14.679 18.143 14.679h21.1c9.471 0 17.36-6.383 18.143-14.679l31.118-330c0.042-0.44 0.063-0.88 0.063-1.321 0-8.837-8.151-16-18.206-16h-83.336z m32.999 386C493.15 628 485 635.163 485 644v38c0 8.837 8.151 16 18.206 16h18.206c10.055 0 18.206-7.163 18.206-16v-38c0-8.837-8.151-16-18.206-16h-18.206z" p-id="5530" fill="#bbbbbb"></path></svg>