<?xml version="1.0" encoding="UTF-8"?>
<svg width="13px" height="16px" viewBox="0 0 13 16" version="1.1" xmlns="http://www.w3.org/2000/svg" xmlns:xlink="http://www.w3.org/1999/xlink">
    <!-- Generator: Sketch 60.1 (88133) - https://sketch.com -->
    <title>create_icon</title>
    <desc>Created with Sketch.</desc>
    <g id="v3" stroke="none" stroke-width="1" fill="none" fill-rule="evenodd">
        <g id="做市" transform="translate(-61.000000, -559.000000)">
            <g id="兑换展示" transform="translate(14.000000, 131.000000)">
                <g id="做市" transform="translate(47.000000, 426.000000)">
                    <g id="create_icon" transform="translate(0.000000, 2.000000)">
                        <path d="M13,4.00234375 L13,14.9333333 C13,15.5224371 12.5522847,16 12,16 L1,16 C0.44771525,16 0,15.5224371 0,14.9333333 L0,1.06666667 C0,0.477562934 0.44771525,0 1,0 L9.09057617,0 L13,4.00234375 Z" id="路径" fill="#29D4B0"></path>
                        <rect id="矩形" fill="#FFFFFF" transform="translate(6.600000, 8.700000) scale(-1, 1) translate(-6.600000, -8.700000) " x="3" y="8.1" width="7.2" height="1.2" rx="0.6"></rect>
                        <rect id="矩形" fill="#FFFFFF" transform="translate(6.600000, 8.700000) scale(-1, 1) rotate(90.000000) translate(-6.600000, -8.700000) " x="3" y="8.1" width="7.2" height="1.2" rx="0.6"></rect>
                    </g>
                </g>
            </g>
        </g>
    </g>
</svg>