<?xml version="1.0" encoding="UTF-8"?>
<svg width="16px" height="18px" viewBox="0 0 16 18" version="1.1" xmlns="http://www.w3.org/2000/svg" xmlns:xlink="http://www.w3.org/1999/xlink">
    <!-- Generator: Sketch 60.1 (88133) - https://sketch.com -->
    <title>Market_icon</title>
    <desc>Created with Sketch.</desc>
    <defs>
        <linearGradient x1="30.0379136%" y1="14.2118566%" x2="50%" y2="80.1528033%" id="linearGradient-1">
            <stop stop-color="#47D5B7" offset="0%"></stop>
            <stop stop-color="#12C19C" offset="100%"></stop>
        </linearGradient>
        <polygon id="path-2" points="0 0.00047 6.0137 0.00047 6.0137 7.99337 0 7.99337"></polygon>
    </defs>
    <g id="v3" stroke="none" stroke-width="1" fill="none" fill-rule="evenodd">
        <g id="兑换-up" transform="translate(-59.000000, -529.000000)">
            <g id="兑换展示" transform="translate(14.000000, 133.000000)">
                <g id="做市" transform="translate(44.000000, 394.000000)">
                    <g id="Market_icon" transform="translate(0.000000, 2.000000)">
                        <path d="M10,0.577350269 L15.7942286,3.92264973 C16.4130308,4.27991532 16.7942286,4.94016936 16.7942286,5.65470054 L16.7942286,12.3452995 C16.7942286,13.0598306 16.4130308,13.7200847 15.7942286,14.0773503 L10,17.4226497 C9.38119785,17.7799153 8.61880215,17.7799153 8,17.4226497 L2.20577137,14.0773503 C1.58696921,13.7200847 1.20577137,13.0598306 1.20577137,12.3452995 L1.20577137,5.65470054 C1.20577137,4.94016936 1.58696921,4.27991532 2.20577137,3.92264973 L8,0.577350269 C8.61880215,0.220084679 9.38119785,0.220084679 10,0.577350269 Z" id="多边形" fill="url(#linearGradient-1)"></path>
                        <g id="编组" transform="translate(6.000000, 5.000000)">
                            <mask id="mask-3" fill="white">
                                <use xlink:href="#path-2"></use>
                            </mask>
                            <g id="Clip-2"></g>
                            <path d="M5.5127,4.98637 L3.5087,4.98637 L3.5087,3.48337 L5.5127,3.48337 C5.7877,3.48337 6.0137,3.25737 6.0137,2.98137 C6.0137,2.70637 5.7877,2.48037 5.5127,2.48037 L4.2097,2.48037 L5.8387,0.85137 C6.0387,0.65137 6.0387,0.35037 5.8387,0.15037 C5.6377,-0.04963 5.3367,-0.04963 5.1367,0.15037 L3.0067,2.28037 L0.8767,0.15037 C0.6767,-0.04963 0.3757,-0.04963 0.1757,0.15037 C-0.0253,0.35037 -0.0253,0.65137 0.1757,0.85137 L1.8047,2.48037 L0.5007,2.48037 C0.2257,2.48037 -0.0003,2.70637 -0.0003,2.98137 C-0.0003,3.25737 0.2257,3.48337 0.5007,3.48337 L2.5057,3.48337 L2.5057,4.98637 L0.5007,4.98637 C0.2257,4.98637 -0.0003,5.21237 -0.0003,5.48737 C-0.0003,5.76337 0.2257,5.98837 0.5007,5.98837 L2.5057,5.98837 L2.5057,7.49237 C2.5057,7.76737 2.7317,7.99337 3.0067,7.99337 C3.2827,7.99337 3.5087,7.76737 3.5087,7.49237 L3.5087,5.98837 L5.5127,5.98837 C5.7877,5.98837 6.0137,5.76337 6.0137,5.48737 C6.0137,5.21237 5.7877,4.98637 5.5127,4.98637" id="Fill-1" fill="#FFFFFF" mask="url(#mask-3)"></path>
                        </g>
                    </g>
                </g>
            </g>
        </g>
    </g>
</svg>