<?xml version="1.0" standalone="no"?><!DOCTYPE svg PUBLIC "-//W3C//DTD SVG 1.1//EN" "http://www.w3.org/Graphics/SVG/1.1/DTD/svg11.dtd"><svg t="1603445729483" class="icon" viewBox="0 0 1024 1024" version="1.1" xmlns="http://www.w3.org/2000/svg" p-id="3302" xmlns:xlink="http://www.w3.org/1999/xlink" width="16" height="16"><defs><style type="text/css"></style></defs><path d="M128 64h288a64 64 0 0 1 64 64v288a64 64 0 0 1-64 64H128a64 64 0 0 1-64-64V128a64 64 0 0 1 64-64z m32 64a32 32 0 0 0-32 32v224a32 32 0 0 0 32 32h224a32 32 0 0 0 32-32V160a32 32 0 0 0-32-32H160z m448-64h288a64 64 0 0 1 64 64v288a64 64 0 0 1-64 64h-288a64 64 0 0 1-64-64V128a64 64 0 0 1 64-64z m32 64a32 32 0 0 0-32 32v224a32 32 0 0 0 32 32h224a32 32 0 0 0 32-32V160a32 32 0 0 0-32-32h-224z m-32 416h288a64 64 0 0 1 64 64v288a64 64 0 0 1-64 64h-288a64 64 0 0 1-64-64v-288a64 64 0 0 1 64-64z m32 64a32 32 0 0 0-32 32v224a32 32 0 0 0 32 32h224a32 32 0 0 0 32-32v-224a32 32 0 0 0-32-32h-224zM128 544h288a64 64 0 0 1 64 64v288a64 64 0 0 1-64 64H128a64 64 0 0 1-64-64v-288a64 64 0 0 1 64-64z m32 64a32 32 0 0 0-32 32v224a32 32 0 0 0 32 32h224a32 32 0 0 0 32-32v-224a32 32 0 0 0-32-32H160z" fill="#333333" p-id="3303"></path></svg>