<?xml version="1.0" standalone="no"?><!DOCTYPE svg PUBLIC "-//W3C//DTD SVG 1.1//EN" "http://www.w3.org/Graphics/SVG/1.1/DTD/svg11.dtd"><svg t="1603446877944" class="icon" viewBox="0 0 1024 1024" version="1.1" xmlns="http://www.w3.org/2000/svg" p-id="3944" xmlns:xlink="http://www.w3.org/1999/xlink" width="16" height="16"><defs><style type="text/css"></style></defs><path d="M941.214017 773.83131c-1.203408-6.122441-4.175089-11.967566-8.92016-16.709567L659.77309 485.569024c11.047614-28.091802 18.101263-58.189284 20.465101-89.596598 0.49528-2.258437 0.76441-4.601808 0.76441-7.008624l-0.204661-2.164293c0.215918-4.736884 0.331551-9.500375 0.331551-14.291494 0-170.725336-138.406257-309.12443-309.133639-309.12443-44.024679 0-85.889159 9.219989-123.793444 25.809829-6.462179 0.883113-12.706393 3.711532-17.797341 8.479115-3.634784 1.87572-7.231705 3.814886-10.780531 5.828752l3.723811 3.723811c-5.885034 12.125155-3.801583 27.143197 6.268774 37.214577l145.882532 146.790204-83.827197 84.479043L145.461441 228.597395c-10.56666-10.580986-26.610054-12.347213-39.025828-5.316076l-3.412726-3.195785c-2.139733 3.767813-4.195555 7.588839-6.178723 11.452843-2.946099 3.748371-4.958942 7.989975-6.025227 12.415774-17.929348 39.147602-27.940352 82.678024-27.940352 128.553864 0 170.728406 138.389884 309.125453 309.117266 309.125453 39.10053 0 76.498278-7.272637 110.931508-20.520359l249.061472 248.176312c6.505158 8.368598 14.052041 15.885805 22.444175 22.363334l1.667989 1.661849c3.611248 3.616364 7.865131 6.200212 12.392238 7.758708 18.34174 10.55438 39.61116 16.59291 62.291718 16.59291 69.076238 0 125.074623-55.999408 125.074623-125.074623C955.859575 811.351855 950.556802 791.351336 941.214017 773.83131zM830.850443 893.439432c-11.418051 0-22.098297-3.15383-31.226189-8.629541l-20.844747-20.771069c-0.813528-1.345648-1.568728-2.729158-2.278903-4.140297l-65.075111-64.712861c-0.13917 0.441045-0.287549 0.876973-0.420579 1.320065L543.574624 629.668956c0.097214-0.064468 0.195451-0.12689 0.292666-0.192382l-47.081295-47.079248c-36.735669 21.945825-79.68383 34.56933-125.585253 34.56933-135.449925 0-245.2691-109.810988-245.2691-245.260913 0-21.555945 2.785439-42.460044 8.010441-62.376653l127.742383 128.536468c0.877997 0.877997 1.796926 1.689479 2.745531 2.445702 1.152243 1.708921 2.479471 3.335978 3.991917 4.847401 12.712533 12.712533 33.305547 12.712533 46.01808 0L444.138938 314.460971c12.712533-12.71151 12.712533-33.313733 0-46.026266-0.804319-0.804319-1.641383-1.556449-2.50403-2.25946-1.098008-1.585101-2.344395-3.098571-3.755534-4.50971l-126.9616-127.743406c19.287275-4.879124 39.480176-7.483438 60.283991-7.483438 135.450948 0 245.252727 109.812011 245.252727 245.2691 0 2.515287-0.051165 5.01727-0.12689 7.514137-0.455371 2.170432-0.698918 4.418636-0.698918 6.724145l0.245593 2.584871c-1.771343 26.097378-7.619538 51.076282-16.919345 74.30124l4.071735 2.801812c-1.802042 1.191128-3.511987 2.579755-5.098111 4.166903-12.713556 12.712533-12.713556 33.314757 0 46.027289l155.519006 154.962328 0.272199-0.291642 28.646434 29.106922 13.047154 13.000082c-0.064468 0.019443-0.127913 0.040932-0.192382 0.060375l66.682725 67.75515c1.577938 0.941442 3.115967 1.942235 4.597715 3.01773l13.446243 13.398148c7.341199 10.045797 11.685133 22.420639 11.685133 35.815717C891.630738 866.217441 864.410793 893.439432 830.850443 893.439432z" p-id="3945" fill="#999999"></path></svg>