<?xml version="1.0" encoding="UTF-8"?>
<svg width="110px" height="76px" viewBox="0 0 110 76" version="1.1" xmlns="http://www.w3.org/2000/svg" xmlns:xlink="http://www.w3.org/1999/xlink">
    <title>tips_poto</title>
    <defs>
        <rect id="path-1" x="0" y="0" width="110" height="76"></rect>
        <polygon id="path-3" points="0 2.6969774 46 5.68434189e-14 46 7.33493831 0 10.0319157"></polygon>
        <polygon id="path-5" points="-7.81597009e-14 2.55592349 47.2210384 0 52.2671049 3.3030226 6.26710493 6"></polygon>
        <path d="M20,0.5 L32.1265002,40.5867056 L32.1149699,40.587 L32.2415771,41.003141 C28.1838708,43.4756651 22.6280289,45 16.5,45 C10.3621725,45 4.79836335,43.4707864 0.738969888,40.9912732 L7.68284024,18.1158173 L13.0293986,0.5 L20,0.5 Z" id="path-7"></path>
        <path d="M20,0.5 L32.1265002,40.5867056 L32.1149699,40.587 L32.2415771,41.003141 C28.1838708,43.4756651 22.6280289,45 16.5,45 C10.3621725,45 4.79836335,43.4707864 0.738969888,40.9912732 L7.68284024,18.1158173 L13.0293986,0.5 L20,0.5 Z" id="path-9"></path>
    </defs>
    <g id="页面-1" stroke="none" stroke-width="1" fill="none" fill-rule="evenodd">
        <g id="兑换/未登录" transform="translate(-133.000000, -297.000000)">
            <g id="编组" transform="translate(47.000000, 247.000000)">
                <g id="tips_poto" transform="translate(86.000000, 50.000000)">
                    <g id="编组-15">
                        <mask id="mask-2" fill="white">
                            <use xlink:href="#path-1"></use>
                        </mask>
                        <g id="矩形" opacity="0.57593936"></g>
                        <g id="编组-12" mask="url(#mask-2)">
                            <g id="编组-11">
                                <polygon id="矩形备份-25" fill="#E8E8E8" points="-1.81188398e-13 26.5 6.11127361 25.3075431 32.9323244 43 26.9323244 43"></polygon>
                                <g id="编组-10" transform="translate(14.932324, 0.000000)">
                                    <polygon id="矩形" stroke="#BDC8CF" fill="#DDE8EC" stroke-linejoin="round" points="6.68690744 25 39.6869074 23.2597465 38.6803562 28.4135335 6.68690744 30"></polygon>
                                    <polygon id="矩形备份-23" stroke="#BDC8CF" fill="#DDE8EC" stroke-linejoin="round" points="5.71795045 8 11.7179505 8 6 35 -4.17443857e-14 35"></polygon>
                                    <polygon id="矩形" stroke="#BDC8CF" fill="#FFFFFF" stroke-linejoin="round" points="1.41980251 2.55329397 9.41980251 2.55329397 9.41980251 9.9773289 1.41980251 9.9773289"></polygon>
                                    <polygon id="矩形" stroke="#BDC8CF" fill="#F0F2F3" stroke-linejoin="round" points="10.6869074 12 16.6869074 12 18 43 12 43"></polygon>
                                    <polygon id="矩形备份-24" stroke="#BDC8CF" fill="#DDE8EC" stroke-linejoin="round" points="39.4048579 8 45.4048579 8 39.6869074 35 33.6869074 35"></polygon>
                                    <polygon id="矩形备份-16" stroke="#BDC8CF" fill="#F0F2F3" stroke-linejoin="round" points="45.6869074 10 51.6869074 10 53 43 47 43"></polygon>
                                    <g id="编组-7" transform="translate(7.686907, 3.303023)">
                                        <mask id="mask-4" fill="white">
                                            <use xlink:href="#path-3"></use>
                                        </mask>
                                        <use id="矩形" stroke="#BDC8CF" fill="#FFFFFF" stroke-linejoin="round" xlink:href="#path-3"></use>
                                        <g id="编组-8" mask="url(#mask-4)" fill="#DDE8EC">
                                            <g transform="translate(1.000000, 0.696977)">
                                                <polygon id="矩形" points="-8.73967565e-13 2 2 2 9.25750904 8.24382473 7.34664398 8.33539641"></polygon>
                                                <polygon id="矩形备份-18" points="7.98689755 1.32609669 9.98689755 1.32609669 17.5338962 7.75713393 15.6622009 7.85702515"></polygon>
                                                <polygon id="矩形备份-19" points="17 1 19 1 26.2148794 7.23646348 24.3444916 7.33947238"></polygon>
                                                <polygon id="矩形备份-20" points="25 4.04121181e-14 27 4.04121181e-14 34.7945359 6.73602135 32.931587 6.84884408"></polygon>
                                                <polygon id="矩形备份-21" points="34 4.04121181e-14 36 4.04121181e-14 43.3726482 6.23524456 41.4555251 6.3416547"></polygon>
                                            </g>
                                        </g>
                                    </g>
                                    <g id="矩形备份-22" transform="translate(1.419803, 0.000000)">
                                        <g id="编组-9">
                                            <mask id="mask-6" fill="white">
                                                <use xlink:href="#path-5"></use>
                                            </mask>
                                            <use id="矩形备份-17" stroke="#BDC8CF" fill="#FFFFFF" stroke-linejoin="round" xlink:href="#path-5"></use>
                                            <g id="编组-8" mask="url(#mask-6)" fill="#DDE8EC">
                                                <g transform="translate(27.267105, 3.000000) scale(1, -1) translate(-27.267105, -3.000000) translate(7.267105, 0.000000)">
                                                    <polygon id="矩形" points="0.0899047852 0.566970825 2.07563782 0.683273315 5.70952767 3.64523215 3.62744861 3.53859631"></polygon>
                                                    <polygon id="矩形备份-18" points="8.58541009 1.06008671 10.5700013 1.17972914 14.89443 4.14840946 12.7725784 4.03140877"></polygon>
                                                    <polygon id="矩形备份-19" points="17.2274176 1.56296494 19.2328951 1.68454658 23.5365304 4.64466318 21.6074397 4.52211003"></polygon>
                                                    <polygon id="矩形备份-20" points="26.068291 2.09016847 28.0819797 2.19645671 32.0264871 5.0648256 30.1199134 4.9750207"></polygon>
                                                    <path d="M35.138194,2.62053516 L36.878194,2.71353516 L39.8076362,5.50252091 L38.3095041,5.4204173 L35.138194,2.62053516 Z" id="形状结合"></path>
                                                </g>
                                            </g>
                                        </g>
                                    </g>
                                </g>
                            </g>
                            <polygon id="路径-3" fill="#E8E8E8" points="105.082221 64.0073821 67.315 48 66.3145025 43.0308577"></polygon>
                            <g id="编组-6" transform="translate(87.000000, 40.984930) rotate(134.000000) translate(-87.000000, -40.984930) translate(63.000000, 10.484930)">
                                <g id="编组-4" transform="translate(0.000000, 27.030858)" fill="#FFFFFF" stroke="#BDC8CF" stroke-linejoin="round">
                                    <polygon id="矩形" points="24 27.5356929 48 13.5663736 48 18.5663736 24 32.5356929"></polygon>
                                    <polygon id="矩形备份-12" points="0 13.5663736 24 3.73034936e-14 48 13.5663736 24 27.5356929"></polygon>
                                    <polygon id="矩形备份-10" transform="translate(12.000000, 23.051033) scale(-1, 1) translate(-12.000000, -23.051033) " points="0 27.5356929 24 13.5663736 24 18.5663736 0 32.5356929"></polygon>
                                </g>
                                <g id="编组-5" transform="translate(8.000000, 1.000000)">
                                    <mask id="mask-8" fill="white">
                                        <use xlink:href="#path-7"></use>
                                    </mask>
                                    <path stroke="#BDC8CF" d="M19.6288765,1 L13.4001663,1 L8.16128884,18.2610307 L1.33086351,40.7627604 C5.29202599,43.0839409 10.6303618,44.5 16.5,44.5 C22.3620071,44.5 27.6957658,43.0893413 31.5442997,40.3889461 L19.6288765,1 Z"></path>
                                    <path d="M14.6657084,1.65524381 L11.7812031,43.6772743 C9.92231542,43.4868621 8.02780294,43.0607246 6.09766569,42.3988618 C4.16752845,41.736999 2.7628306,41.1140527 1.88357214,40.530023 L13.7778639,1.42794866 L14.6657084,1.65524381 Z" id="路径-2" fill="#DDE8EC" mask="url(#mask-8)"></path>
                                    <path d="M31.0969459,1.65524381 L28.2124406,43.6772743 C26.3535529,43.4868621 24.4590404,43.0607246 22.5289032,42.3988618 C20.5987659,41.736999 19.1940681,41.1140527 18.3148096,40.530023 L30.2091014,1.42794866 L31.0969459,1.65524381 Z" id="路径-2备份" fill="#F1F2F4" mask="url(#mask-8)" transform="translate(24.705878, 22.552611) scale(-1, 1) translate(-24.705878, -22.552611) "></path>
                                    <path d="M19.2610301,-9 L31.3875303,31.0867056 L31.376,31.087 L31.5026072,31.503141 C27.4449009,33.9756651 21.889059,35.5 15.7610301,35.5 C9.62320262,35.5 4.05939346,33.9707864 0,31.4912732 L12.2904287,-9 L19.2610301,-9 Z M18.518,-8 L13.031,-8 L1.185,31.025 L1.34298374,31.1144708 C5.12253196,33.1955245 9.98772635,34.4111415 15.1825136,34.4953168 L15.7610301,34.5 C21.1638948,34.5 26.2435805,33.2765069 30.1609245,31.1244478 L30.315,31.037 L30.0368045,30.1208641 L30.05,30.12 L18.518,-8 Z" id="形状结合备份-2" fill="#BDC8CF" fill-rule="nonzero" mask="url(#mask-8)"></path>
                                    <path d="M19.2610301,-19 L31.3875303,21.0867056 L31.376,21.087 L31.5026072,21.503141 C27.4449009,23.9756651 21.889059,25.5 15.7610301,25.5 C9.62320262,25.5 4.05939346,23.9707864 0,21.4912732 L12.2904287,-19 L19.2610301,-19 Z M18.518,-18 L13.031,-18 L1.185,21.025 L1.34298374,21.1144708 C5.12253196,23.1955245 9.98772635,24.4111415 15.1825136,24.4953168 L15.7610301,24.5 C21.1638948,24.5 26.2435805,23.2765069 30.1609245,21.1244478 L30.315,21.037 L30.0368045,20.1208641 L30.05,20.12 L18.518,-18 Z" id="形状结合备份-3" fill="#BDC8CF" fill-rule="nonzero" mask="url(#mask-8)"></path>
                                    <path d="M19.2610301,-30 L31.3875303,10.0867056 L31.376,10.087 L31.5026072,10.503141 C27.4449009,12.9756651 21.889059,14.5 15.7610301,14.5 C9.62320262,14.5 4.05939346,12.9707864 0,10.4912732 L12.2904287,-30 L19.2610301,-30 Z M18.518,-29 L13.031,-29 L1.185,10.025 L1.34298374,10.1144708 C5.12253196,12.1955245 9.98772635,13.4111415 15.1825136,13.4953168 L15.7610301,13.5 C21.1638948,13.5 26.2435805,12.2765069 30.1609245,10.1244478 L30.315,10.037 L30.0368045,9.12086406 L30.05,9.12 L18.518,-29 Z" id="形状结合备份-4" fill="#BDC8CF" fill-rule="nonzero" mask="url(#mask-8)"></path>
                                </g>
                                <ellipse id="椭圆形" stroke="#BDC8CF" fill="#FFFFFF" cx="24.5" cy="1.5" rx="3" ry="1"></ellipse>
                            </g>
                            <path d="M21.7757152,46.287536 L31.8499188,60.3851724 L31.8499188,60.3851724 L51.5329501,50.6531804 L23.3428386,43.9560412 C22.5368444,43.7645608 21.7282314,44.2627226 21.5367509,45.0687169 C21.4365634,45.4904337 21.523701,45.9348726 21.7757152,46.287536 Z" id="路径-4" fill="#E8E8E8"></path>
                            <g id="编组-6" transform="translate(29.000000, 16.000000)">
                                <g id="编组-4" transform="translate(0.000000, 27.030858)" fill="#FFFFFF" stroke="#BDC8CF" stroke-linejoin="round">
                                    <polygon id="矩形" points="24 27.5356929 48 13.5663736 48 18.5663736 24 32.5356929"></polygon>
                                    <polygon id="矩形备份-12" points="0 13.5663736 24 3.73034936e-14 48 13.5663736 24 27.5356929"></polygon>
                                    <polygon id="矩形备份-10" transform="translate(12.000000, 23.051033) scale(-1, 1) translate(-12.000000, -23.051033) " points="0 27.5356929 24 13.5663736 24 18.5663736 0 32.5356929"></polygon>
                                </g>
                                <g id="编组-5" transform="translate(8.000000, 1.000000)">
                                    <mask id="mask-10" fill="white">
                                        <use xlink:href="#path-9"></use>
                                    </mask>
                                    <path stroke="#BDC8CF" d="M19.6288765,1 L13.4001663,1 L8.16128884,18.2610307 L1.33086351,40.7627604 C5.29202599,43.0839409 10.6303618,44.5 16.5,44.5 C22.3620071,44.5 27.6957658,43.0893413 31.5442997,40.3889461 L19.6288765,1 Z"></path>
                                    <path d="M14.6657084,1.65524381 L11.7812031,43.6772743 C9.92231542,43.4868621 8.02780294,43.0607246 6.09766569,42.3988618 C4.16752845,41.736999 2.7628306,41.1140527 1.88357214,40.530023 L13.7778639,1.42794866 L14.6657084,1.65524381 Z" id="路径-2" fill="#DDE8EC" mask="url(#mask-10)"></path>
                                    <path d="M31.0969459,1.65524381 L28.2124406,43.6772743 C26.3535529,43.4868621 24.4590404,43.0607246 22.5289032,42.3988618 C20.5987659,41.736999 19.1940681,41.1140527 18.3148096,40.530023 L30.2091014,1.42794866 L31.0969459,1.65524381 Z" id="路径-2备份" fill="#F1F2F4" mask="url(#mask-10)" transform="translate(24.705878, 22.552611) scale(-1, 1) translate(-24.705878, -22.552611) "></path>
                                    <path d="M19.2610301,-9 L31.3875303,31.0867056 L31.376,31.087 L31.5026072,31.503141 C27.4449009,33.9756651 21.889059,35.5 15.7610301,35.5 C9.62320262,35.5 4.05939346,33.9707864 0,31.4912732 L12.2904287,-9 L19.2610301,-9 Z M18.518,-8 L13.031,-8 L1.185,31.025 L1.34298374,31.1144708 C5.12253196,33.1955245 9.98772635,34.4111415 15.1825136,34.4953168 L15.7610301,34.5 C21.1638948,34.5 26.2435805,33.2765069 30.1609245,31.1244478 L30.315,31.037 L30.0368045,30.1208641 L30.05,30.12 L18.518,-8 Z" id="形状结合备份-2" fill="#BDC8CF" fill-rule="nonzero" mask="url(#mask-10)"></path>
                                    <path d="M19.2610301,-19 L31.3875303,21.0867056 L31.376,21.087 L31.5026072,21.503141 C27.4449009,23.9756651 21.889059,25.5 15.7610301,25.5 C9.62320262,25.5 4.05939346,23.9707864 0,21.4912732 L12.2904287,-19 L19.2610301,-19 Z M18.518,-18 L13.031,-18 L1.185,21.025 L1.34298374,21.1144708 C5.12253196,23.1955245 9.98772635,24.4111415 15.1825136,24.4953168 L15.7610301,24.5 C21.1638948,24.5 26.2435805,23.2765069 30.1609245,21.1244478 L30.315,21.037 L30.0368045,20.1208641 L30.05,20.12 L18.518,-18 Z" id="形状结合备份-3" fill="#BDC8CF" fill-rule="nonzero" mask="url(#mask-10)"></path>
                                    <path d="M19.2610301,-30 L31.3875303,10.0867056 L31.376,10.087 L31.5026072,10.503141 C27.4449009,12.9756651 21.889059,14.5 15.7610301,14.5 C9.62320262,14.5 4.05939346,12.9707864 0,10.4912732 L12.2904287,-30 L19.2610301,-30 Z M18.518,-29 L13.031,-29 L1.185,10.025 L1.34298374,10.1144708 C5.12253196,12.1955245 9.98772635,13.4111415 15.1825136,13.4953168 L15.7610301,13.5 C21.1638948,13.5 26.2435805,12.2765069 30.1609245,10.1244478 L30.315,10.037 L30.0368045,9.12086406 L30.05,9.12 L18.518,-29 Z" id="形状结合备份-4" fill="#BDC8CF" fill-rule="nonzero" mask="url(#mask-10)"></path>
                                </g>
                                <ellipse id="椭圆形" stroke="#BDC8CF" fill="#FFFFFF" cx="24.5" cy="1.5" rx="3" ry="1"></ellipse>
                            </g>
                        </g>
                    </g>
                </g>
            </g>
        </g>
    </g>
</svg>