<?xml version="1.0" encoding="UTF-8"?>
<svg width="12px" height="12px" viewBox="0 0 12 12" version="1.1" xmlns="http://www.w3.org/2000/svg" xmlns:xlink="http://www.w3.org/1999/xlink">
    <title>sd_icon_btn</title>
    <g id="页面-1" stroke="none" stroke-width="1" fill="none" fill-rule="evenodd">
        <g id="兑换/选择市场/弹窗(PC)" transform="translate(-343.000000, -430.000000)" fill="#000000">
            <g id="sd_icon_btn" transform="translate(343.000000, 430.000000)">
                <path d="M2.10050506,0.732923985 L5.98939828,4.62103077 L9.87867966,0.732923985 C10.2391636,0.372440023 10.8063947,0.344710488 11.1986859,0.649735379 L11.2928932,0.732923985 C11.6834175,1.12344828 11.6834175,1.75661326 11.2928932,2.14713755 L11.2928932,2.14713755 L7.40339828,6.03603077 L11.2928932,9.92531214 C11.6834175,10.3158364 11.6834175,10.9490014 11.2928932,11.3395257 C10.9023689,11.73005 10.2692039,11.73005 9.87867966,11.3395257 L5.98939828,7.45003077 L2.10050506,11.3395257 C1.7400211,11.7000097 1.17279005,11.7277392 0.780498839,11.4227143 L0.686291501,11.3395257 C0.295767209,10.9490014 0.295767209,10.3158364 0.686291501,9.92531214 L0.686291501,9.92531214 L4.57439828,6.03603077 L0.686291501,2.14713755 C0.295767209,1.75661326 0.295767209,1.12344828 0.686291501,0.732923985 C1.07681579,0.342399693 1.70998077,0.342399693 2.10050506,0.732923985 Z"></path>
            </g>
        </g>
    </g>
</svg>