<?xml version="1.0" encoding="UTF-8"?>
<svg width="50px" height="50px" viewBox="0 0 50 50" version="1.1" xmlns="http://www.w3.org/2000/svg" xmlns:xlink="http://www.w3.org/1999/xlink">
    <title>enter_solid_down</title>
    <g id="页面-1" stroke="none" stroke-width="1" fill="none" fill-rule="evenodd">
        <g id="交互文档/兑换" transform="translate(-990.000000, -777.000000)">
            <g id="enter_solid_down" transform="translate(990.000000, 777.000000)">
                <g>
                    <circle id="椭圆形" fill="#FFFFFF" cx="25" cy="25" r="25"></circle>
                    <g id="编组-4">
                        <path d="M25,0 C37.0948241,0 47.1836155,8.58884753 49.4999293,20.0000979 L48.4786097,20.0008794 C46.1786042,9.14548532 36.5405421,1 25,1 C13.4594579,1 3.82139577,9.14548532 1.5213903,20.0008794 L0.500070701,20.0000979 C2.81638453,8.58884753 12.9051759,0 25,0 Z" id="形状结合" fill="#F3F3F3" fill-rule="nonzero"></path>
                        <path d="M49.4998476,20 C49.8278271,21.6156441 50,23.2878677 50,25.0003044 C50,38.8074232 38.8071187,50.0003044 25,50.0003044 C11.1928813,50.0003044 0,38.8074232 0,25.0003044 C0,23.2878677 0.172172925,21.6156441 0.500152378,20 Z" id="形状结合" fill="#FFFFFF"></path>
                        <path d="M25,30 C37.0948241,30 47.1836155,38.5888475 49.4999293,50.0000979 L48.4786097,50.0008794 C46.1786042,39.1454853 36.5405421,31 25,31 C13.4594579,31 3.82139577,39.1454853 1.5213903,50.0008794 L0.500070701,50.0000979 C2.81638453,38.5888475 12.9051759,30 25,30 Z" id="形状结合" fill="#07D79B" transform="translate(25.000000, 40.000440) scale(1, -1) translate(-25.000000, -40.000440) "></path>
                    </g>
                </g>
            </g>
        </g>
    </g>
</svg>