<?xml version="1.0" encoding="UTF-8"?>
<svg width="16px" height="18px" viewBox="0 0 16 18" version="1.1" xmlns="http://www.w3.org/2000/svg" xmlns:xlink="http://www.w3.org/1999/xlink">
    <title>setup_icon</title>
    <g id="页面-1" stroke="none" stroke-width="1" fill="none" fill-rule="evenodd">
        <g id="兑换/未登录" transform="translate(-277.000000, -65.000000)" fill="#000000">
            <g id="setup_icon" transform="translate(277.000000, 65.000000)">
                <g>
                    <path d="M15.9942076,5.50556026 C15.9934599,4.78235573 15.6102814,4.11446869 14.9889659,3.75340616 L8.99665503,0.270446049 C8.37525073,-0.0907234468 7.61000053,-0.0901092679 6.98916697,0.27205723 L1.00224769,3.76468439 C0.381467423,4.12687438 -0.000582156458,4.79555147 6.6587595e-07,5.51885246 L0.00579236983,12.4942383 C0.00654006903,13.2174429 0.389718639,13.8853299 1.01103407,14.2463924 L7.00334499,17.729554 C7.62474929,18.0907234 8.38999949,18.0901093 9.01083305,17.7279428 L14.9977523,14.2353156 C15.6185326,13.8731256 16.0005822,13.2044485 16.0000007,12.4811475 L15.9942076,5.50556026 Z M13.6443127,12.7636355 L8.362558,15.9017476 C8.14164029,16.0327508 7.86945844,16.0327508 7.64854072,15.9017476 L2.36255799,12.7734065 C2.1418712,12.6422834 2.00572376,12.4005152 2.00510894,12.1386549 L2.00000001,5.87165892 C2.00000001,5.60997649 2.13551541,5.36804277 2.35568737,5.23636448 L7.63744202,2.09825243 C7.85835973,1.96724919 8.13054157,1.96724919 8.35145928,2.09825243 L13.637442,5.22659351 C13.8581288,5.3577166 13.9942762,5.59948478 13.9948911,5.86134511 L14,12.1283411 C14,12.3900235 13.8644846,12.6319572 13.6443127,12.7636355 L13.6443127,12.7636355 Z" id="形状"></path>
                    <circle id="椭圆形" opacity="0.19155506" cx="8" cy="9" r="3"></circle>
                </g>
            </g>
        </g>
    </g>
</svg>