<?xml version="1.0" encoding="UTF-8"?>
<svg width="13px" height="14px" viewBox="0 0 13 14" version="1.1" xmlns="http://www.w3.org/2000/svg" xmlns:xlink="http://www.w3.org/1999/xlink">
    <title>user_icon</title>
    <g id="页面-1" stroke="none" stroke-width="1" fill="none" fill-rule="evenodd">
        <g id="兑换/未登录" transform="translate(-34.000000, -843.000000)" fill="#000000">
            <g id="编组-2" transform="translate(20.000000, 796.000000)">
                <g id="user_icon" transform="translate(14.000000, 47.000000)">
                    <g id="形状">
                        <path d="M1.20959091,12.7875876 C1.199108,12.7865733 1.18929267,12.7818623 1.18181818,12.7742578 L1.18181818,10.5275686 C1.18181818,10.4166883 1.29113636,10.2446118 1.40518182,10.1973513 C1.42468182,10.1888687 2.68686364,9.62416688 4.17418182,9.24184195 C4.93586364,9.0461352 5.75545455,8.89708301 6.5,8.89708301 C7.17659091,8.89708301 7.917,9.02008136 8.62018182,9.18973427 C9.64134565,9.44492279 10.6408403,9.78390756 11.609,10.2034104 C11.7070909,10.2446118 11.8181818,10.4172942 11.8181818,10.5275686 L11.8181818,12.7875876 L1.20959091,12.7875876 Z M6.35522727,1.21180626 C7.40553717,1.21146822 8.25797714,2.08282829 8.26090909,3.15978534 L8.26090909,5.49069506 C8.25797714,6.5676521 7.40553717,7.43901218 6.35522727,7.43867413 C5.30501368,7.43901137 4.45274311,6.56755423 4.45013636,5.49069506 L4.45013636,3.15978534 C4.45274311,2.08292616 5.30501368,1.21146902 6.35522727,1.21180626 Z M12.0716818,9.08854843 C11.9995909,9.05582965 10.9903182,8.60382585 9.68381818,8.22210681 C9.2416757,8.09169218 8.79435173,7.98051057 8.34304545,7.88886004 C9.00959091,7.30961655 9.44272727,6.4558989 9.44272727,5.49069506 L9.44272727,3.15978534 C9.4397937,1.41380236 8.05859628,0 6.35581818,0 C4.654,0 3.26831818,1.41478404 3.26831818,3.15978534 L3.26831818,5.49069506 C3.26831818,6.48195274 3.72568182,7.35808881 4.4265,7.9385441 C3.95613636,8.04033584 3.50113636,8.1633342 3.08218182,8.29178568 C2.35653309,8.51367621 1.64356895,8.77705034 0.946636364,9.08067169 C0.406545455,9.30303817 0,9.92530079 0,10.5275686 L0,13.0208604 L0.0313181818,13.1153813 C0.206818182,13.6443348 0.680136364,14 1.20959091,14 L11.7904091,14 C12.3974737,14 12.9105145,13.5386083 12.9899545,12.9214923 L13,10.5281745 C13,9.92954211 12.5946364,9.3084913 12.0716818,9.08854843 Z"></path>
                    </g>
                </g>
            </g>
        </g>
    </g>
</svg>