<svg 
 xmlns="http://www.w3.org/2000/svg"
 xmlns:xlink="http://www.w3.org/1999/xlink"
 width="52px" height="62px">
<defs>
<filter id="Filter_0">
    <feFlood flood-color="rgb(255, 220, 130)" flood-opacity="1" result="floodOut" />
    <feComposite operator="atop" in="floodOut" in2="SourceGraphic" result="compOut" />
    <feBlend mode="normal" in="compOut" in2="SourceGraphic" />
</filter>
<linearGradient id="PSgrad_0" x1="0%" x2="0%" y1="100%" y2="0%">
  <stop offset="0%" stop-color="rgb(252,194,58)" stop-opacity="1" />
  <stop offset="100%" stop-color="rgb(253,232,171)" stop-opacity="1" />
</linearGradient>
<filter id="Filter_1">
    <feOffset in="SourceAlpha" dx="0" dy="3" />
    <feGaussianBlur result="blurOut" stdDeviation="2.646" />
    <feFlood flood-color="rgb(255, 178, 0)" result="floodOut" />
    <feComposite operator="out" in="floodOut" in2="blurOut" result="compOut" />
    <feComposite operator="in" in="compOut" in2="SourceAlpha" />
    <feComponentTransfer><feFuncA type="linear" slope="0.35"/></feComponentTransfer>
    <feBlend mode="multiply" in2="SourceGraphic" />
</filter>

</defs>
<g filter="url(#Filter_0)">
<path fill-rule="evenodd"  fill="rgb(253, 134, 126)"
 d="M15.750,0.621 L18.625,0.621 L18.625,23.277 L15.750,23.277 C14.093,23.277 12.750,21.934 12.750,20.277 L12.750,3.621 C12.750,1.964 14.093,0.621 15.750,0.621 Z"/>
<path fill-rule="evenodd"  fill="rgb(253, 134, 126)"
 d="M23.438,0.621 L29.312,0.621 L29.312,23.277 L26.438,23.277 C24.781,23.277 23.438,21.934 23.438,20.277 L23.438,0.621 Z"/>
<path fill-rule="evenodd"  fill="rgb(253, 134, 126)"
 d="M34.094,0.621 L36.969,0.621 C38.626,0.621 39.969,1.964 39.969,3.621 L39.969,23.277 L37.094,23.277 C35.437,23.277 34.094,21.934 34.094,20.277 L34.094,0.621 Z"/>
</g>
<path fill-rule="evenodd"  fill="rgb(255, 233, 5)"
 d="M26.094,11.277 C40.091,11.277 51.438,22.624 51.438,36.621 C51.438,50.618 40.091,61.965 26.094,61.965 C12.097,61.965 0.750,50.618 0.750,36.621 C0.750,22.624 12.097,11.277 26.094,11.277 Z"/>
<path fill="url(#PSgrad_0)"
 d="M26.094,11.277 C40.091,11.277 51.438,22.624 51.438,36.621 C51.438,50.618 40.091,61.965 26.094,61.965 C12.097,61.965 0.750,50.618 0.750,36.621 C0.750,22.624 12.097,11.277 26.094,11.277 Z"/>
<g filter="url(#Filter_1)">
<path fill-rule="evenodd"  fill="rgb(255, 189, 35)"
 d="M26.094,17.965 C36.415,17.965 44.781,26.325 44.781,36.637 C44.781,46.949 36.415,55.309 26.094,55.309 C15.773,55.309 7.406,46.949 7.406,36.637 C7.406,26.325 15.773,17.965 26.094,17.965 Z"/>
</g>
</svg>