<svg 
 xmlns="http://www.w3.org/2000/svg"
 xmlns:xlink="http://www.w3.org/1999/xlink"
 width="52px" height="62px">
<defs>
<filter id="Filter_0">
    <feFlood flood-color="rgb(226, 228, 229)" flood-opacity="1" result="floodOut" />
    <feComposite operator="atop" in="floodOut" in2="SourceGraphic" result="compOut" />
    <feBlend mode="normal" in="compOut" in2="SourceGraphic" />
</filter>
<linearGradient id="PSgrad_0" x1="0%" x2="0%" y1="100%" y2="0%">
  <stop offset="0%" stop-color="rgb(193,200,205)" stop-opacity="1" />
  <stop offset="100%" stop-color="rgb(228,229,230)" stop-opacity="1" />
</linearGradient>
<filter id="Filter_1">
    <feOffset in="SourceAlpha" dx="0" dy="3" />
    <feGaussianBlur result="blurOut" stdDeviation="2.646" />
    <feFlood flood-color="rgb(127, 162, 190)" result="floodOut" />
    <feComposite operator="out" in="floodOut" in2="blurOut" result="compOut" />
    <feComposite operator="in" in="compOut" in2="SourceAlpha" />
    <feComponentTransfer><feFuncA type="linear" slope="0.35"/></feComponentTransfer>
    <feBlend mode="multiply" in2="SourceGraphic" />
</filter>

</defs>
<g filter="url(#Filter_0)">
<path fill-rule="evenodd"  fill="rgb(253, 134, 126)"
 d="M15.750,0.352 L18.625,0.352 L18.625,23.008 L15.750,23.008 C14.093,23.008 12.750,21.665 12.750,20.008 L12.750,3.352 C12.750,1.695 14.093,0.352 15.750,0.352 Z"/>
<path fill-rule="evenodd"  fill="rgb(253, 134, 126)"
 d="M23.438,0.352 L29.312,0.352 L29.312,23.008 L26.438,23.008 C24.781,23.008 23.438,21.665 23.438,20.008 L23.438,0.352 Z"/>
<path fill-rule="evenodd"  fill="rgb(253, 134, 126)"
 d="M34.094,0.352 L36.969,0.352 C38.626,0.352 39.969,1.695 39.969,3.352 L39.969,23.008 L37.094,23.008 C35.437,23.008 34.094,21.665 34.094,20.008 L34.094,0.352 Z"/>
</g>
<path fill-rule="evenodd"  fill="rgb(255, 233, 5)"
 d="M26.094,11.008 C40.091,11.008 51.438,22.355 51.438,36.352 C51.438,50.349 40.091,61.695 26.094,61.695 C12.097,61.695 0.750,50.349 0.750,36.352 C0.750,22.355 12.097,11.008 26.094,11.008 Z"/>
<path fill="url(#PSgrad_0)"
 d="M26.094,11.008 C40.091,11.008 51.438,22.355 51.438,36.352 C51.438,50.349 40.091,61.695 26.094,61.695 C12.097,61.695 0.750,50.349 0.750,36.352 C0.750,22.355 12.097,11.008 26.094,11.008 Z"/>
<g filter="url(#Filter_1)">
<path fill-rule="evenodd"  fill="rgb(172, 182, 190)"
 d="M26.094,17.695 C36.415,17.695 44.781,26.055 44.781,36.367 C44.781,46.679 36.415,55.039 26.094,55.039 C15.773,55.039 7.406,46.679 7.406,36.367 C7.406,26.055 15.773,17.695 26.094,17.695 Z"/>
</g>
</svg>