<?xml version="1.0" encoding="UTF-8"?>
<svg width="170px" height="170px" viewBox="0 0 170 170" version="1.1" xmlns="http://www.w3.org/2000/svg" xmlns:xlink="http://www.w3.org/1999/xlink">
    <!-- Generator: Sketch 61.2 (89653) - https://sketch.com -->
    <title>编组 7</title>
    <desc>Created with Sketch.</desc>
    <g id="页面-1" stroke="none" stroke-width="1" fill="none" fill-rule="evenodd">
        <g id="编组-7">
            <circle id="椭圆形" fill="#5D97B6" cx="85" cy="85" r="85"></circle>
            <g id="图形备份-2" transform="translate(27.000000, 27.000000)" fill="#FFFFFF">
                <path d="M2.45230147,76.3449979 C4.99330147,81.8259979 8.37230147,86.8799979 12.2883015,91.4289979 C16.1883015,95.9929979 20.6913015,100.031998 25.6753015,103.331998 C28.1833015,104.956998 30.7853015,106.427998 33.4793015,107.713998 C34.1503015,108.039998 34.8443015,108.313998 35.5253015,108.617998 C36.2053015,108.924998 36.8943015,109.210998 37.5983015,109.455998 L39.6963015,110.232998 L41.8343015,110.893998 C47.5393015,112.651998 53.5163015,113.423998 59.4793015,113.556998 C60.9703015,113.637998 62.4693015,113.574998 63.9673015,113.527998 L68.4633015,113.394998 C69.9573015,113.297998 71.4443015,113.108998 72.9353015,112.969998 C74.4253015,112.813998 75.9233015,112.710998 77.3893015,112.401998 L81.8103015,111.618998 C83.2723015,111.303998 84.7103015,110.884998 86.1613015,110.523998 C86.8813015,110.323998 87.6183015,110.177998 88.3253015,109.932998 L90.4423015,109.200998 C91.8553015,108.715998 93.2943015,108.289998 94.6453015,107.645998 C100.175301,105.389998 105.396301,102.294998 109.847301,98.2859979 L111.508301,96.7739979 C112.049301,96.2579979 112.535301,95.6869979 113.052301,95.1429979 C114.118301,94.0819979 114.974301,92.8479979 115.916301,91.6779979 C116.739301,90.4259979 117.588301,89.1809979 118.244301,87.8269979 C118.955301,86.5009979 119.483301,85.0849979 119.848301,83.6179979 C119.318301,86.6079979 117.903301,89.3679979 116.284301,91.9289979 C115.385301,93.1509979 114.562301,94.4409979 113.530301,95.5629979 C113.029301,96.1339979 112.557301,96.7359979 112.030301,97.2849979 L110.406301,98.8919979 C105.987301,103.099998 100.736301,106.386998 95.1563015,108.835998 C93.7893015,109.527998 92.3383015,109.998998 90.9093015,110.531998 L88.7533015,111.303998 C88.0343015,111.556998 87.2863015,111.713998 86.5533015,111.924998 C85.0773015,112.304998 83.6143015,112.743998 82.1273015,113.076998 L77.6343015,113.912998 C76.1423015,114.238998 74.6233015,114.358998 73.1103015,114.528998 C71.5973015,114.682998 70.0853015,114.887998 68.5683015,114.998998 L64.0083015,115.172998 C62.4893015,115.232998 60.9693015,115.313998 59.4393015,115.236998 C47.2563015,114.960998 34.9773015,111.442998 24.9523015,104.398998 C14.9593015,97.3949979 6.99530147,87.5539979 2.45230147,76.3449979" id="Fill-1"></path>
                <path d="M66.0743015,109.944098 C71.1793015,109.228098 76.2863015,108.507098 81.2173015,107.047098 C83.7113015,106.429098 86.1093015,105.514098 88.5323015,104.679098 C90.8833015,103.663098 93.2603015,102.696098 95.4823015,101.419098 C100.000301,99.0270979 104.188301,95.9950979 107.785301,92.3580979 C109.617301,90.5710979 111.207301,88.5480979 112.633301,86.4240979 C114.059301,84.2980979 115.224301,81.9710979 115.841301,79.4650979 C115.691301,80.0910979 115.616301,80.7420979 115.403301,81.3520979 C115.180301,81.9580979 115.021301,82.5940979 114.740301,83.1770979 C114.470301,83.7650979 114.218301,84.3640979 113.931301,84.9440979 L112.983301,86.6430979 C111.611301,88.8390979 110.054301,90.9360979 108.252301,92.8070979 C104.694301,96.5960979 100.430301,99.6760979 95.8803015,102.160098 C93.6133015,103.433098 91.1963015,104.387098 88.8063015,105.393098 C86.3453015,106.203098 83.9233015,107.142098 81.3813015,107.669098 L79.4973015,108.133098 L78.5553015,108.366098 L77.5993015,108.531098 L73.7763015,109.181098 C72.5073015,109.426098 71.2123015,109.485098 69.9283015,109.613098 L66.0743015,109.944098 Z" id="Fill-3"></path>
                <path d="M80.1012015,102.632598 C80.9082015,102.291598 81.7162015,101.957598 82.5262015,101.631598 L83.7392015,101.141598 C84.1402015,100.968598 84.5292015,100.771598 84.9232015,100.586598 L87.2952015,99.4915979 L89.5952015,98.2585979 C92.6242015,96.5615979 95.5812015,94.7165979 98.2402015,92.4855979 C100.938201,90.3115979 103.390201,87.8345979 105.518201,85.1005979 C106.044201,84.4135979 106.549201,83.7075979 107.040201,82.9935979 C107.492201,82.2555979 107.988201,81.5395979 108.375201,80.7635979 C109.235201,79.2575979 109.948201,77.6555979 110.353201,75.9535979 L110.354201,75.9595979 L110.270201,75.8155979 L110.368201,75.9505979 L110.370201,75.9525979 L110.370201,75.9565979 C110.145201,77.7005979 109.499201,79.3675979 108.750201,80.9555979 C108.391201,81.7625979 107.921201,82.5085979 107.494201,83.2805979 C107.027201,84.0265979 106.545201,84.7665979 106.042201,85.4905979 C103.975201,88.3515979 101.475201,90.8795979 98.7702015,93.1365979 C96.0222015,95.3485979 93.0252015,97.2355979 89.8942015,98.8265979 C86.7772015,100.461598 83.4442015,101.618598 80.1012015,102.632598" id="Fill-5"></path>
                <path d="M86.6818015,92.4132979 C68.5348015,104.671298 51.8358015,117.547298 27.7998015,113.776298 C27.4608015,113.722298 27.3908015,113.262298 27.6968015,113.106298 C39.5108015,107.010298 45.2368015,99.1932979 45.2368015,99.1932979 C39.0368015,94.4792979 36.0828015,93.1532979 22.9118015,90.0902979 C12.2338015,87.6062979 4.89480147,82.4582979 2.45280147,76.3452979 C-2.14619853,64.8352979 -0.703198528,50.5192979 10.4278015,37.6542979 C10.4278015,37.6542979 15.1588015,33.6332979 11.1528015,25.8812979 C7.05380147,17.9482979 8.58580147,7.2502979 13.0578015,0.406297903 C13.5498015,-0.347702097 14.7178015,0.0192979033 14.7138015,0.920297903 C14.7078015,3.3322979 15.2078015,6.6852979 17.4118015,9.9032979 C21.5088015,15.8852979 27.5348015,22.7162979 24.8908015,27.3232979 C24.8908015,27.3232979 30.7078015,24.2432979 40.2488015,30.3762979 C46.0018015,34.0742979 46.5818015,34.7082979 48.8528015,34.7752979 C49.7688015,34.8012979 50.0818015,36.0062979 49.2868015,36.4622979 C45.7878015,38.4642979 40.0768015,41.3072979 30.7878015,40.1002979 C14.6378015,38.0002979 5.93180147,54.0852979 24.0638015,62.4112979 C42.6148015,70.9312979 99.1848015,49.5422979 119.848801,83.6182979 C119.848801,83.6182979 106.422801,79.0792979 86.6818015,92.4132979" id="Fill-7"></path>
            </g>
        </g>
    </g>
</svg>